<?xml version="1.0" encoding="utf-8"?>
<svg version="1.1" xmlns:xlink="http://www.w3.org/1999/xlink" width="13px" height="11px" xmlns="http://www.w3.org/2000/svg">
  <g transform="matrix(1 0 0 1 -27 -60 )">
    <path d="M 7.0078125 10.3515625  C 7.150752314814816 10.252604166666666  7.222222222222222 10.135416666666666  7.222222222222222 10  C 7.222222222222222 9.864583333333334  7.150752314814816 9.747395833333334  7.0078125 9.6484375  C 6.864872685185185 9.549479166666666  6.695601851851851 9.5  6.5 9.5  C 6.304398148148149 9.5  6.135127314814816 9.549479166666666  5.9921875 9.6484375  C 5.849247685185185 9.747395833333334  5.777777777777778 9.864583333333334  5.777777777777778 10  C 5.777777777777778 10.135416666666666  5.849247685185185 10.252604166666666  5.9921875 10.3515625  C 6.135127314814816 10.450520833333334  6.304398148148149 10.5  6.5 10.5  C 6.695601851851851 10.5  6.864872685185185 10.450520833333334  7.0078125 10.3515625  Z M 11.448350694444445 8.92578125  C 11.519820601851851 8.876302083333332  11.555555555555555 8.817708333333332  11.555555555555555 8.75  L 11.555555555555555 1.25  C 11.555555555555555 1.182291666666666  11.519820601851851 1.1236979166666656  11.448350694444445 1.07421875  C 11.376880787037038 1.024739583333332  11.29224537037037 1.0000000000000004  11.194444444444445 1.0000000000000004  L 1.8055555555555556 1.0000000000000004  C 1.7077546296296298 1.0000000000000004  1.623119212962963 1.024739583333332  1.5516493055555556 1.07421875  C 1.4801793981481484 1.1236979166666656  1.4444444444444444 1.182291666666666  1.4444444444444444 1.25  L 1.4444444444444444 8.75  C 1.4444444444444444 8.817708333333332  1.4801793981481484 8.876302083333332  1.5516493055555556 8.92578125  C 1.623119212962963 8.975260416666666  1.7077546296296298 9  1.8055555555555556 9  L 11.194444444444445 9  C 11.29224537037037 9  11.376880787037038 8.975260416666666  11.448350694444445 8.92578125  Z M 12.469618055555555 0.36718749999999944  C 12.82320601851852 0.6119791666666657  13 0.9062500000000001  13 1.25  L 13 9.75  C 13 10.09375  12.82320601851852 10.388020833333334  12.469618055555555 10.6328125  C 12.116030092592593 10.877604166666666  11.690972222222223 11  11.194444444444445 11  L 1.8055555555555556 11  C 1.309027777777778 11  0.8839699074074074 10.877604166666666  0.5303819444444444 10.6328125  C 0.17679398148148148 10.388020833333334  0 10.09375  0 9.75  L 0 1.25  C 0 0.9062500000000001  0.17679398148148148 0.6119791666666657  0.5303819444444444 0.36718749999999944  C 0.8839699074074074 0.12239583333333193  1.309027777777778 0  1.8055555555555556 0  L 11.194444444444445 0  C 11.690972222222223 0  12.116030092592593 0.12239583333333193  12.469618055555555 0.36718749999999944  Z " fill-rule="nonzero" fill="#000000" stroke="none" transform="matrix(1 0 0 1 27 60 )" />
  </g>
</svg>