<?xml version="1.0" encoding="utf-8"?>
<svg version="1.1" xmlns:xlink="http://www.w3.org/1999/xlink" width="32px" height="36px" xmlns="http://www.w3.org/2000/svg">
  <g transform="matrix(1 0 0 1 -118 -88 )">
    <path d="M 134 89  C 142.4 89  149 96.48  149 106  C 149 115.52  142.4 123  134 123  C 125.6 123  119 115.52  119 106  C 119 96.48  125.6 89  134 89  Z " fill-rule="nonzero" fill="#ffffff" stroke="none" />
    <path d="M 134 89  C 142.4 89  149 96.48  149 106  C 149 115.52  142.4 123  134 123  C 125.6 123  119 115.52  119 106  C 119 96.48  125.6 89  134 89  Z " stroke-width="2" stroke="#000000" fill="none" />
  </g>
</svg>