<?xml version="1.0" encoding="utf-8"?>
<svg version="1.1" xmlns:xlink="http://www.w3.org/1999/xlink" width="57px" height="43px" xmlns="http://www.w3.org/2000/svg">
  <defs>
    <mask fill="white" id="clip142">
      <path d="M 15.80859375 0.0959821428571449  C 15.957031250000002 0.03199404761904989  16.11607142857143 0  16.285714285714285 0  C 16.56138392857143 0  16.799944196428573 0.07598586309523991  17.001395089285715 0.22795758928571497  C 17.20284598214286 0.37992931547619  17.303571428571427 0.5598958333333302  18 0.7678571428571449  L 18 36.089285714285715  C 17.303571428571427 36.40922619047619  17.123325892857146 36.633184523809526  16.762834821428573 36.761160714285715  L 1.4949776785714286 42.904017857142854  C 1.3465401785714288 42.968005952380956  1.1875000000000002 43  1.0178571428571428 43  C 0.7421875 43  0.5036272321428571 42.92401413690476  0.3021763392857143 42.772042410714285  C 0.10072544642857142 42.62007068452381  0 42.44010416666667  0 42.232142857142854  L 0 6.910714285714285  C 0 6.590773809523805  0.1802455357142857 6.366815476190475  0.5407366071428571 6.238839285714285  L 15.80859375 0.0959821428571449  Z M 55.50502232142857 0.0959821428571449  C 55.653459821428584 0.03199404761904989  55.81250000000001 0  55.982142857142854 0  C 56.25781250000001 0  56.49637276785715 0.07598586309523991  56.697823660714285 0.22795758928571497  C 56.89927455357143 0.37992931547619  57 0.5598958333333302  57 0.7678571428571449  L 57 36.089285714285715  C 57 36.40922619047619  56.819754464285715 36.633184523809526  56.459263392857146 36.761160714285715  L 41.19140625 42.904017857142854  C 41.04296875 42.968005952380956  40.88392857142858 43  40.714285714285715 43  C 40.43861607142858 43  40.20005580357143 42.92401413690476  39.998604910714285 42.772042410714285  C 39.797154017857146 42.62007068452381  39.69642857142857 42.44010416666667  39 42.232142857142854  L 39 6.910714285714285  C 39.69642857142857 6.590773809523805  39.87667410714286 6.366815476190475  40.23716517857143 6.238839285714285  L 55.50502232142857 0.0959821428571449  Z M 19.641462053571427 0.22795758928571497  C 19.842912946428573 0.07598586309523991  20.081473214285715 0  20.357142857142858 0  C 20.526785714285715 0  20.675223214285715 0.023995535714285032  20.802455357142858 0.0719866071428551  L 37.088169642857146 6.21484375  C 37.46986607142857 6.3748139880952355  37.660714285714285 6.60677083333333  37 6.910714285714285  L 37 42.232142857142854  C 37.660714285714285 42.44010416666667  37.559988839285715 42.62007068452381  37.35853794642857 42.772042410714285  C 37.15708705357143 42.92401413690476  36.91852678571429 43  36.642857142857146 43  C 36.47321428571429 43  36.324776785714285 42.976004464285715  36.197544642857146 42.928013392857146  L 19.911830357142858 36.78515625  C 19.530133928571427 36.62518601190476  19.339285714285715 36.39322916666667  20 36.089285714285715  L 20 0.7678571428571449  C 19.339285714285715 0.5598958333333302  19.44001116071429 0.37992931547619  19.641462053571427 0.22795758928571497  Z " fill-rule="evenodd" />
    </mask>
  </defs>
  <g transform="matrix(1 0 0 1 -119 -250 )">
    <path d="M 15.80859375 0.0959821428571449  C 15.957031250000002 0.03199404761904989  16.11607142857143 0  16.285714285714285 0  C 16.56138392857143 0  16.799944196428573 0.07598586309523991  17.001395089285715 0.22795758928571497  C 17.20284598214286 0.37992931547619  17.303571428571427 0.5598958333333302  18 0.7678571428571449  L 18 36.089285714285715  C 17.303571428571427 36.40922619047619  17.123325892857146 36.633184523809526  16.762834821428573 36.761160714285715  L 1.4949776785714286 42.904017857142854  C 1.3465401785714288 42.968005952380956  1.1875000000000002 43  1.0178571428571428 43  C 0.7421875 43  0.5036272321428571 42.92401413690476  0.3021763392857143 42.772042410714285  C 0.10072544642857142 42.62007068452381  0 42.44010416666667  0 42.232142857142854  L 0 6.910714285714285  C 0 6.590773809523805  0.1802455357142857 6.366815476190475  0.5407366071428571 6.238839285714285  L 15.80859375 0.0959821428571449  Z M 55.50502232142857 0.0959821428571449  C 55.653459821428584 0.03199404761904989  55.81250000000001 0  55.982142857142854 0  C 56.25781250000001 0  56.49637276785715 0.07598586309523991  56.697823660714285 0.22795758928571497  C 56.89927455357143 0.37992931547619  57 0.5598958333333302  57 0.7678571428571449  L 57 36.089285714285715  C 57 36.40922619047619  56.819754464285715 36.633184523809526  56.459263392857146 36.761160714285715  L 41.19140625 42.904017857142854  C 41.04296875 42.968005952380956  40.88392857142858 43  40.714285714285715 43  C 40.43861607142858 43  40.20005580357143 42.92401413690476  39.998604910714285 42.772042410714285  C 39.797154017857146 42.62007068452381  39.69642857142857 42.44010416666667  39 42.232142857142854  L 39 6.910714285714285  C 39.69642857142857 6.590773809523805  39.87667410714286 6.366815476190475  40.23716517857143 6.238839285714285  L 55.50502232142857 0.0959821428571449  Z M 19.641462053571427 0.22795758928571497  C 19.842912946428573 0.07598586309523991  20.081473214285715 0  20.357142857142858 0  C 20.526785714285715 0  20.675223214285715 0.023995535714285032  20.802455357142858 0.0719866071428551  L 37.088169642857146 6.21484375  C 37.46986607142857 6.3748139880952355  37.660714285714285 6.60677083333333  37 6.910714285714285  L 37 42.232142857142854  C 37.660714285714285 42.44010416666667  37.559988839285715 42.62007068452381  37.35853794642857 42.772042410714285  C 37.15708705357143 42.92401413690476  36.91852678571429 43  36.642857142857146 43  C 36.47321428571429 43  36.324776785714285 42.976004464285715  36.197544642857146 42.928013392857146  L 19.911830357142858 36.78515625  C 19.530133928571427 36.62518601190476  19.339285714285715 36.39322916666667  20 36.089285714285715  L 20 0.7678571428571449  C 19.339285714285715 0.5598958333333302  19.44001116071429 0.37992931547619  19.641462053571427 0.22795758928571497  Z " fill-rule="nonzero" fill="#ffffff" stroke="none" fill-opacity="0.996078431372549" transform="matrix(1 0 0 1 119 250 )" />
    <path d="M 15.80859375 0.0959821428571449  C 15.957031250000002 0.03199404761904989  16.11607142857143 0  16.285714285714285 0  C 16.56138392857143 0  16.799944196428573 0.07598586309523991  17.001395089285715 0.22795758928571497  C 17.20284598214286 0.37992931547619  17.303571428571427 0.5598958333333302  18 0.7678571428571449  L 18 36.089285714285715  C 17.303571428571427 36.40922619047619  17.123325892857146 36.633184523809526  16.762834821428573 36.761160714285715  L 1.4949776785714286 42.904017857142854  C 1.3465401785714288 42.968005952380956  1.1875000000000002 43  1.0178571428571428 43  C 0.7421875 43  0.5036272321428571 42.92401413690476  0.3021763392857143 42.772042410714285  C 0.10072544642857142 42.62007068452381  0 42.44010416666667  0 42.232142857142854  L 0 6.910714285714285  C 0 6.590773809523805  0.1802455357142857 6.366815476190475  0.5407366071428571 6.238839285714285  L 15.80859375 0.0959821428571449  Z " stroke-width="4" stroke="#000000" fill="none" transform="matrix(1 0 0 1 119 250 )" mask="url(#clip142)" />
    <path d="M 55.50502232142857 0.0959821428571449  C 55.653459821428584 0.03199404761904989  55.81250000000001 0  55.982142857142854 0  C 56.25781250000001 0  56.49637276785715 0.07598586309523991  56.697823660714285 0.22795758928571497  C 56.89927455357143 0.37992931547619  57 0.5598958333333302  57 0.7678571428571449  L 57 36.089285714285715  C 57 36.40922619047619  56.819754464285715 36.633184523809526  56.459263392857146 36.761160714285715  L 41.19140625 42.904017857142854  C 41.04296875 42.968005952380956  40.88392857142858 43  40.714285714285715 43  C 40.43861607142858 43  40.20005580357143 42.92401413690476  39.998604910714285 42.772042410714285  C 39.797154017857146 42.62007068452381  39.69642857142857 42.44010416666667  39 42.232142857142854  L 39 6.910714285714285  C 39.69642857142857 6.590773809523805  39.87667410714286 6.366815476190475  40.23716517857143 6.238839285714285  L 55.50502232142857 0.0959821428571449  Z " stroke-width="4" stroke="#000000" fill="none" transform="matrix(1 0 0 1 119 250 )" mask="url(#clip142)" />
    <path d="M 19.641462053571427 0.22795758928571497  C 19.842912946428573 0.07598586309523991  20.081473214285715 0  20.357142857142858 0  C 20.526785714285715 0  20.675223214285715 0.023995535714285032  20.802455357142858 0.0719866071428551  L 37.088169642857146 6.21484375  C 37.46986607142857 6.3748139880952355  37.660714285714285 6.60677083333333  37 6.910714285714285  L 37 42.232142857142854  C 37.660714285714285 42.44010416666667  37.559988839285715 42.62007068452381  37.35853794642857 42.772042410714285  C 37.15708705357143 42.92401413690476  36.91852678571429 43  36.642857142857146 43  C 36.47321428571429 43  36.324776785714285 42.976004464285715  36.197544642857146 42.928013392857146  L 19.911830357142858 36.78515625  C 19.530133928571427 36.62518601190476  19.339285714285715 36.39322916666667  20 36.089285714285715  L 20 0.7678571428571449  C 19.339285714285715 0.5598958333333302  19.44001116071429 0.37992931547619  19.641462053571427 0.22795758928571497  Z " stroke-width="4" stroke="#000000" fill="none" transform="matrix(1 0 0 1 119 250 )" mask="url(#clip142)" />
  </g>
</svg>