<?xml version="1.0" encoding="utf-8"?>
<svg version="1.1" xmlns:xlink="http://www.w3.org/1999/xlink" width="14px" height="19px" xmlns="http://www.w3.org/2000/svg">
  <defs>
    <mask fill="white" id="clip143">
      <path d="M 9.474609375 8.572265625  C 10.158203125 7.953776041666666  10.5 7.207465277777778  10.5 6.333333333333334  C 10.5 5.4592013888888875  10.158203125 4.712890625  9.474609375 4.094401041666666  C 8.791015625 3.475911458333334  7.966145833333334 3.166666666666666  7 3.166666666666666  C 6.033854166666667 3.166666666666666  5.208984375 3.475911458333334  4.525390625 4.094401041666666  C 3.841796875 4.712890625  3.5 5.4592013888888875  3.5 6.333333333333334  C 3.5 7.207465277777778  3.841796875 7.953776041666666  4.525390625 8.572265625  C 5.208984375 9.190755208333334  6.033854166666667 9.5  7 9.5  C 7.966145833333334 9.5  8.791015625 9.190755208333334  9.474609375 8.572265625  Z M 11.94921875 1.85546875  C 13.31640625 3.092447916666666  14 4.585069444444442  14 6.333333333333334  C 14 7.23220486111111  13.849609375 7.970269097222222  13.548828125 8.547526041666666  L 8.572265625 18.121744791666664  C 8.426432291666668 18.393880208333336  8.2099609375 18.608289930555554  7.9228515625 18.764973958333336  C 7.6357421875 18.92165798611111  7.328125 19  7 19  C 6.671875 19  6.3642578125 18.92165798611111  6.0771484375 18.764973958333336  C 5.7900390625 18.608289930555554  5.578125 18.393880208333336  5.44140625 18.121744791666664  L 0.451171875 8.547526041666666  C 0.150390625 7.970269097222222  0 7.23220486111111  0 6.333333333333334  C 0 4.585069444444442  0.68359375 3.092447916666666  2.05078125 1.85546875  C 3.4179687500000004 0.618489583333334  5.067708333333334 0  7 0  C 8.932291666666668 0  10.58203125 0.618489583333334  11.94921875 1.85546875  Z " fill-rule="evenodd" />
    </mask>
  </defs>
  <g transform="matrix(1 0 0 1 -123 -258 )">
    <path d="M 9.474609375 8.572265625  C 10.158203125 7.953776041666666  10.5 7.207465277777778  10.5 6.333333333333334  C 10.5 5.4592013888888875  10.158203125 4.712890625  9.474609375 4.094401041666666  C 8.791015625 3.475911458333334  7.966145833333334 3.166666666666666  7 3.166666666666666  C 6.033854166666667 3.166666666666666  5.208984375 3.475911458333334  4.525390625 4.094401041666666  C 3.841796875 4.712890625  3.5 5.4592013888888875  3.5 6.333333333333334  C 3.5 7.207465277777778  3.841796875 7.953776041666666  4.525390625 8.572265625  C 5.208984375 9.190755208333334  6.033854166666667 9.5  7 9.5  C 7.966145833333334 9.5  8.791015625 9.190755208333334  9.474609375 8.572265625  Z M 11.94921875 1.85546875  C 13.31640625 3.092447916666666  14 4.585069444444442  14 6.333333333333334  C 14 7.23220486111111  13.849609375 7.970269097222222  13.548828125 8.547526041666666  L 8.572265625 18.121744791666664  C 8.426432291666668 18.393880208333336  8.2099609375 18.608289930555554  7.9228515625 18.764973958333336  C 7.6357421875 18.92165798611111  7.328125 19  7 19  C 6.671875 19  6.3642578125 18.92165798611111  6.0771484375 18.764973958333336  C 5.7900390625 18.608289930555554  5.578125 18.393880208333336  5.44140625 18.121744791666664  L 0.451171875 8.547526041666666  C 0.150390625 7.970269097222222  0 7.23220486111111  0 6.333333333333334  C 0 4.585069444444442  0.68359375 3.092447916666666  2.05078125 1.85546875  C 3.4179687500000004 0.618489583333334  5.067708333333334 0  7 0  C 8.932291666666668 0  10.58203125 0.618489583333334  11.94921875 1.85546875  Z " fill-rule="nonzero" fill="#000000" stroke="none" transform="matrix(1 0 0 1 123 258 )" />
    <path d="M 9.474609375 8.572265625  C 10.158203125 7.953776041666666  10.5 7.207465277777778  10.5 6.333333333333334  C 10.5 5.4592013888888875  10.158203125 4.712890625  9.474609375 4.094401041666666  C 8.791015625 3.475911458333334  7.966145833333334 3.166666666666666  7 3.166666666666666  C 6.033854166666667 3.166666666666666  5.208984375 3.475911458333334  4.525390625 4.094401041666666  C 3.841796875 4.712890625  3.5 5.4592013888888875  3.5 6.333333333333334  C 3.5 7.207465277777778  3.841796875 7.953776041666666  4.525390625 8.572265625  C 5.208984375 9.190755208333334  6.033854166666667 9.5  7 9.5  C 7.966145833333334 9.5  8.791015625 9.190755208333334  9.474609375 8.572265625  Z " stroke-width="2" stroke="#000000" fill="none" transform="matrix(1 0 0 1 123 258 )" mask="url(#clip143)" />
    <path d="M 11.94921875 1.85546875  C 13.31640625 3.092447916666666  14 4.585069444444442  14 6.333333333333334  C 14 7.23220486111111  13.849609375 7.970269097222222  13.548828125 8.547526041666666  L 8.572265625 18.121744791666664  C 8.426432291666668 18.393880208333336  8.2099609375 18.608289930555554  7.9228515625 18.764973958333336  C 7.6357421875 18.92165798611111  7.328125 19  7 19  C 6.671875 19  6.3642578125 18.92165798611111  6.0771484375 18.764973958333336  C 5.7900390625 18.608289930555554  5.578125 18.393880208333336  5.44140625 18.121744791666664  L 0.451171875 8.547526041666666  C 0.150390625 7.970269097222222  0 7.23220486111111  0 6.333333333333334  C 0 4.585069444444442  0.68359375 3.092447916666666  2.05078125 1.85546875  C 3.4179687500000004 0.618489583333334  5.067708333333334 0  7 0  C 8.932291666666668 0  10.58203125 0.618489583333334  11.94921875 1.85546875  Z " stroke-width="2" stroke="#000000" fill="none" transform="matrix(1 0 0 1 123 258 )" mask="url(#clip143)" />
  </g>
</svg>