<?xml version="1.0" encoding="utf-8"?>
<svg version="1.1" xmlns:xlink="http://www.w3.org/1999/xlink" width="51px" height="43px" xmlns="http://www.w3.org/2000/svg">
  <defs>
    <mask fill="white" id="clip144">
      <path d="M 1.0234113712374582 33  L 49.97658862876254 33  L 50.97157190635451 41.296316964285715  C 51.02842809364549 41.74423363095239  50.8768115942029 42.14415922619048  50.51672240802676 42.49609375  C 50.15663322185062 42.83203125  49.70178372352286 43  49.15217391304348 43  L 1.8478260869565217 43  C 1.298216276477146 43  0.8433667781493869 42.83203125  0.48327759197324416 42.49609375  C 0.12318840579710144 42.14415922619048  -0.028428093645484948 41.74423363095239  0.028428093645484948 41.296316964285715  L 1.0234113712374582 33  Z M 46.735785953177256 12.681640625  C 47.07692307692308 12.945591517857144  47.27591973244147 13.26953125  47.33277591973244 13.65345982142857  L 49.77759197324415 32  L 1.2224080267558528 32  L 3.6672240802675584 13.65345982142857  C 3.7240802675585285 13.26953125  3.9230769230769234 12.945591517857144  4.264214046822742 12.681640625  C 4.605351170568562 12.417689732142856  5.012820512820514 12.285714285714285  5.486622073578595 12.285714285714285  L 12.764214046822744 12.285714285714285  L 12.764214046822744 15.357142857142856  C 12.764214046822744 16.204985119047617  13.119565217391303 16.92885044642857  13.830267558528428 17.528738839285715  C 14.540969899665551 18.128627232142854  15.398550724637685 18.42857142857143  16.403010033444815 18.42857142857143  C 17.407469342251954 18.42857142857143  18.265050167224082 18.128627232142854  18.975752508361204 17.528738839285715  C 19.68645484949833 16.92885044642857  20.04180602006689 16.204985119047617  20.04180602006689 15.357142857142856  L 20.04180602006689 13  L 30.958193979933114 13  L 30.958193979933114 15.357142857142856  C 30.958193979933114 16.204985119047617  31.313545150501675 16.92885044642857  32.024247491638796 17.528738839285715  C 32.73494983277592 18.128627232142854  33.59253065774805 18.42857142857143  34.596989966555185 18.42857142857143  C 35.60144927536233 18.42857142857143  36.45903010033445 18.128627232142854  37.169732441471574 17.528738839285715  C 37.880434782608695 16.92885044642857  38.235785953177256 16.204985119047617  38.235785953177256 15.357142857142856  L 38.235785953177256 12.285714285714285  L 45.513377926421406 12.285714285714285  C 45.98717948717949 12.285714285714285  46.39464882943143 12.417689732142856  46.735785953177256 12.681640625  Z M 33.21822742474916 2.699497767857145  C 35.35033444816054 4.49916294642857  36.41638795986622 6.67075892857143  36.41638795986622 9.214285714285715  L 36.41638795986622 15.357142857142856  C 36.41638795986622 15.773065476190474  36.23634336677815 16.13299851190476  35.87625418060201 16.436941964285715  C 35.51616499442587 16.740885416666664  35.0897435897436 16.892857142857146  34.596989966555185 16.892857142857146  C 34.10423634336678 16.892857142857146  33.677814938684506 16.740885416666664  33.31772575250836 16.436941964285715  C 32.957636566332226 16.13299851190476  32.77759197324415 15.773065476190474  32.77759197324415 15.357142857142856  L 32.77759197324415 9.214285714285715  C 32.77759197324415 7.51860119047619  32.06688963210703 6.070870535714285  30.645484949832774 4.87109375  C 29.22408026755853 3.671316964285715  27.508918617614274 3.0714285714285703  25.5 3.0714285714285703  C 23.491081382385733 3.0714285714285703  21.77591973244147 3.671316964285715  20.354515050167223 4.87109375  C 18.933110367892976 6.070870535714285  18.222408026755854 7.51860119047619  18.222408026755854 9.214285714285715  L 18.222408026755854 15.357142857142856  C 18.222408026755854 15.773065476190474  18.042363433667784 16.13299851190476  17.682274247491637 16.436941964285715  C 17.322185061315498 16.740885416666664  16.895763656633225 16.892857142857146  16.403010033444815 16.892857142857146  C 15.910256410256412 16.892857142857146  15.48383500557414 16.740885416666664  15.123745819397994 16.436941964285715  C 14.763656633221851 16.13299851190476  14.583612040133778 15.773065476190474  14.583612040133778 15.357142857142856  L 14.583612040133778 9.214285714285715  C 14.583612040133778 6.67075892857143  15.649665551839465 4.49916294642857  17.781772575250837 2.699497767857145  C 19.91387959866221 0.899832589285715  22.486622073578594 0  25.5 0  C 28.513377926421406 0  31.08612040133779 0.899832589285715  33.21822742474916 2.699497767857145  Z " fill-rule="evenodd" />
    </mask>
  </defs>
  <g transform="matrix(1 0 0 1 -188 -250 )">
    <path d="M 1.0234113712374582 33  L 49.97658862876254 33  L 50.97157190635451 41.296316964285715  C 51.02842809364549 41.74423363095239  50.8768115942029 42.14415922619048  50.51672240802676 42.49609375  C 50.15663322185062 42.83203125  49.70178372352286 43  49.15217391304348 43  L 1.8478260869565217 43  C 1.298216276477146 43  0.8433667781493869 42.83203125  0.48327759197324416 42.49609375  C 0.12318840579710144 42.14415922619048  -0.028428093645484948 41.74423363095239  0.028428093645484948 41.296316964285715  L 1.0234113712374582 33  Z M 46.735785953177256 12.681640625  C 47.07692307692308 12.945591517857144  47.27591973244147 13.26953125  47.33277591973244 13.65345982142857  L 49.77759197324415 32  L 1.2224080267558528 32  L 3.6672240802675584 13.65345982142857  C 3.7240802675585285 13.26953125  3.9230769230769234 12.945591517857144  4.264214046822742 12.681640625  C 4.605351170568562 12.417689732142856  5.012820512820514 12.285714285714285  5.486622073578595 12.285714285714285  L 12.764214046822744 12.285714285714285  L 12.764214046822744 15.357142857142856  C 12.764214046822744 16.204985119047617  13.119565217391303 16.92885044642857  13.830267558528428 17.528738839285715  C 14.540969899665551 18.128627232142854  15.398550724637685 18.42857142857143  16.403010033444815 18.42857142857143  C 17.407469342251954 18.42857142857143  18.265050167224082 18.128627232142854  18.975752508361204 17.528738839285715  C 19.68645484949833 16.92885044642857  20.04180602006689 16.204985119047617  20.04180602006689 15.357142857142856  L 20.04180602006689 13  L 30.958193979933114 13  L 30.958193979933114 15.357142857142856  C 30.958193979933114 16.204985119047617  31.313545150501675 16.92885044642857  32.024247491638796 17.528738839285715  C 32.73494983277592 18.128627232142854  33.59253065774805 18.42857142857143  34.596989966555185 18.42857142857143  C 35.60144927536233 18.42857142857143  36.45903010033445 18.128627232142854  37.169732441471574 17.528738839285715  C 37.880434782608695 16.92885044642857  38.235785953177256 16.204985119047617  38.235785953177256 15.357142857142856  L 38.235785953177256 12.285714285714285  L 45.513377926421406 12.285714285714285  C 45.98717948717949 12.285714285714285  46.39464882943143 12.417689732142856  46.735785953177256 12.681640625  Z M 33.21822742474916 2.699497767857145  C 35.35033444816054 4.49916294642857  36.41638795986622 6.67075892857143  36.41638795986622 9.214285714285715  L 36.41638795986622 15.357142857142856  C 36.41638795986622 15.773065476190474  36.23634336677815 16.13299851190476  35.87625418060201 16.436941964285715  C 35.51616499442587 16.740885416666664  35.0897435897436 16.892857142857146  34.596989966555185 16.892857142857146  C 34.10423634336678 16.892857142857146  33.677814938684506 16.740885416666664  33.31772575250836 16.436941964285715  C 32.957636566332226 16.13299851190476  32.77759197324415 15.773065476190474  32.77759197324415 15.357142857142856  L 32.77759197324415 9.214285714285715  C 32.77759197324415 7.51860119047619  32.06688963210703 6.070870535714285  30.645484949832774 4.87109375  C 29.22408026755853 3.671316964285715  27.508918617614274 3.0714285714285703  25.5 3.0714285714285703  C 23.491081382385733 3.0714285714285703  21.77591973244147 3.671316964285715  20.354515050167223 4.87109375  C 18.933110367892976 6.070870535714285  18.222408026755854 7.51860119047619  18.222408026755854 9.214285714285715  L 18.222408026755854 15.357142857142856  C 18.222408026755854 15.773065476190474  18.042363433667784 16.13299851190476  17.682274247491637 16.436941964285715  C 17.322185061315498 16.740885416666664  16.895763656633225 16.892857142857146  16.403010033444815 16.892857142857146  C 15.910256410256412 16.892857142857146  15.48383500557414 16.740885416666664  15.123745819397994 16.436941964285715  C 14.763656633221851 16.13299851190476  14.583612040133778 15.773065476190474  14.583612040133778 15.357142857142856  L 14.583612040133778 9.214285714285715  C 14.583612040133778 6.67075892857143  15.649665551839465 4.49916294642857  17.781772575250837 2.699497767857145  C 19.91387959866221 0.899832589285715  22.486622073578594 0  25.5 0  C 28.513377926421406 0  31.08612040133779 0.899832589285715  33.21822742474916 2.699497767857145  Z " fill-rule="nonzero" fill="#ffffff" stroke="none" transform="matrix(1 0 0 1 188 250 )" />
    <path d="M 1.0234113712374582 33  L 49.97658862876254 33  L 50.97157190635451 41.296316964285715  C 51.02842809364549 41.74423363095239  50.8768115942029 42.14415922619048  50.51672240802676 42.49609375  C 50.15663322185062 42.83203125  49.70178372352286 43  49.15217391304348 43  L 1.8478260869565217 43  C 1.298216276477146 43  0.8433667781493869 42.83203125  0.48327759197324416 42.49609375  C 0.12318840579710144 42.14415922619048  -0.028428093645484948 41.74423363095239  0.028428093645484948 41.296316964285715  L 1.0234113712374582 33  Z " stroke-width="4" stroke="#0f0f0f" fill="none" transform="matrix(1 0 0 1 188 250 )" mask="url(#clip144)" />
    <path d="M 46.735785953177256 12.681640625  C 47.07692307692308 12.945591517857144  47.27591973244147 13.26953125  47.33277591973244 13.65345982142857  L 49.77759197324415 32  L 1.2224080267558528 32  L 3.6672240802675584 13.65345982142857  C 3.7240802675585285 13.26953125  3.9230769230769234 12.945591517857144  4.264214046822742 12.681640625  C 4.605351170568562 12.417689732142856  5.012820512820514 12.285714285714285  5.486622073578595 12.285714285714285  L 12.764214046822744 12.285714285714285  L 12.764214046822744 15.357142857142856  C 12.764214046822744 16.204985119047617  13.119565217391303 16.92885044642857  13.830267558528428 17.528738839285715  C 14.540969899665551 18.128627232142854  15.398550724637685 18.42857142857143  16.403010033444815 18.42857142857143  C 17.407469342251954 18.42857142857143  18.265050167224082 18.128627232142854  18.975752508361204 17.528738839285715  C 19.68645484949833 16.92885044642857  20.04180602006689 16.204985119047617  20.04180602006689 15.357142857142856  L 20.04180602006689 13  L 30.958193979933114 13  L 30.958193979933114 15.357142857142856  C 30.958193979933114 16.204985119047617  31.313545150501675 16.92885044642857  32.024247491638796 17.528738839285715  C 32.73494983277592 18.128627232142854  33.59253065774805 18.42857142857143  34.596989966555185 18.42857142857143  C 35.60144927536233 18.42857142857143  36.45903010033445 18.128627232142854  37.169732441471574 17.528738839285715  C 37.880434782608695 16.92885044642857  38.235785953177256 16.204985119047617  38.235785953177256 15.357142857142856  L 38.235785953177256 12.285714285714285  L 45.513377926421406 12.285714285714285  C 45.98717948717949 12.285714285714285  46.39464882943143 12.417689732142856  46.735785953177256 12.681640625  Z " stroke-width="4" stroke="#0f0f0f" fill="none" transform="matrix(1 0 0 1 188 250 )" mask="url(#clip144)" />
    <path d="M 33.21822742474916 2.699497767857145  C 35.35033444816054 4.49916294642857  36.41638795986622 6.67075892857143  36.41638795986622 9.214285714285715  L 36.41638795986622 15.357142857142856  C 36.41638795986622 15.773065476190474  36.23634336677815 16.13299851190476  35.87625418060201 16.436941964285715  C 35.51616499442587 16.740885416666664  35.0897435897436 16.892857142857146  34.596989966555185 16.892857142857146  C 34.10423634336678 16.892857142857146  33.677814938684506 16.740885416666664  33.31772575250836 16.436941964285715  C 32.957636566332226 16.13299851190476  32.77759197324415 15.773065476190474  32.77759197324415 15.357142857142856  L 32.77759197324415 9.214285714285715  C 32.77759197324415 7.51860119047619  32.06688963210703 6.070870535714285  30.645484949832774 4.87109375  C 29.22408026755853 3.671316964285715  27.508918617614274 3.0714285714285703  25.5 3.0714285714285703  C 23.491081382385733 3.0714285714285703  21.77591973244147 3.671316964285715  20.354515050167223 4.87109375  C 18.933110367892976 6.070870535714285  18.222408026755854 7.51860119047619  18.222408026755854 9.214285714285715  L 18.222408026755854 15.357142857142856  C 18.222408026755854 15.773065476190474  18.042363433667784 16.13299851190476  17.682274247491637 16.436941964285715  C 17.322185061315498 16.740885416666664  16.895763656633225 16.892857142857146  16.403010033444815 16.892857142857146  C 15.910256410256412 16.892857142857146  15.48383500557414 16.740885416666664  15.123745819397994 16.436941964285715  C 14.763656633221851 16.13299851190476  14.583612040133778 15.773065476190474  14.583612040133778 15.357142857142856  L 14.583612040133778 9.214285714285715  C 14.583612040133778 6.67075892857143  15.649665551839465 4.49916294642857  17.781772575250837 2.699497767857145  C 19.91387959866221 0.899832589285715  22.486622073578594 0  25.5 0  C 28.513377926421406 0  31.08612040133779 0.899832589285715  33.21822742474916 2.699497767857145  Z " stroke-width="4" stroke="#0f0f0f" fill="none" transform="matrix(1 0 0 1 188 250 )" mask="url(#clip144)" />
  </g>
</svg>