<?xml version="1.0" encoding="utf-8"?>
<svg version="1.1" xmlns:xlink="http://www.w3.org/1999/xlink" width="29px" height="18px" xmlns="http://www.w3.org/2000/svg">
  <g transform="matrix(1 0 0 1 -344 -300 )">
    <path d="M 24.831474597273857 10.283710054559638  C 24.843453118546062 10.302416212003134  24.84944237918214 10.330475448168341  24.84944237918214 10.36788776305534  L 24.84944237918214 17.10210444271241  C 24.84944237918214 17.345284489477766  24.735646427096246 17.55572876071708  24.50805452292441 17.733437256430232  C 24.280462618752576 17.911145752143423  24.010945890128056 18  23.69950433705081 18  L 16.799876084262703 18  L 16.799876084262703 12.61262665627435  L 12.200123915737299 12.61262665627435  L 12.200123915737299 18  L 5.3004956629491895 18  C 4.989054109871944 18  4.719537381247423 17.911145752143423  4.491945477075589 17.733437256430232  C 4.264353572903755 17.55572876071708  4.150557620817858 17.345284489477766  4.150557620817858 17.10210444271241  L 4.150557620817858 10.36788776305534  C 4.150557620817858 10.358534684333588  4.153552251135898 10.344505066250965  4.15954151177198 10.325798908807467  C 4.1655307724081005 10.307092751364008  4.168525402726142 10.293063133281386  4.168525402726142 10.283710054559638  L 14.5 3.633671083398304  L 24.831474597273857 10.283710054559638  Z M 28.98203221809168 9.070148090413078  C 28.99401073936392 9.19641465315665  28.952085914911194 9.306313328137183  28.85625774473358 9.399844115354632  L 27.74225526641885 10.438035853468417  C 27.646427096241236 10.522213561964158  27.5206526228831 10.573655494933737  27.364931846344476 10.592361652377235  L 27.31102850061959 10.592361652377235  C 27.155307724080966 10.592361652377235  27.029533250722825 10.559625876851113  26.933705080545213 10.49415432579891  L 14.5 2.3990646921278307  L 2.0662949194547866 10.49415432579891  C 1.9225526641883657 10.568978955572863  1.7788104089219443 10.601714731098983  1.6350681536555232 10.592361652377235  C 1.4793473771169 10.573655494933737  1.3535729037587627 10.522213561964158  1.2577447335811485 10.438035853468417  L 0.14374225526642126 9.399844115354632  C 0.04791408508880709 9.306313328137183  0.005989260636082153 9.19641465315665  0.017967781908283922 9.070148090413078  C 0.029946303180485693 8.943881527669506  0.09582817017761418 8.843335931410763  0.21561338289963186 8.76851130163677  L 13.134448574969035 0.3647700701480928  C 13.517761255679455 0.12159002338269759  13.972945064023122 0  14.5 0  C 15.027054935976878 0  15.482238744320544 0.12159002338269759  15.865551425030963 0.3647700701480928  L 24.831474597273857 6.215120810600161  L 24.84944237918214 6.215120810600161  L 28.784386617100367 8.76851130163677  C 28.904171829822385 8.843335931410763  28.970053696819516 8.943881527669506  28.98203221809168 9.070148090413078  Z " fill-rule="nonzero" fill="#0b0b0b" stroke="none" transform="matrix(1 0 0 1 344 300 )" />
  </g>
</svg>