<?xml version="1.0" encoding="utf-8"?>
<svg version="1.1" xmlns:xlink="http://www.w3.org/1999/xlink" width="23px" height="12px" xmlns="http://www.w3.org/2000/svg">
  <g transform="matrix(1 0 0 1 -576 -63 )">
    <path d="M 11.5 9.600000000000001  L 2.5555555555555554 9.600000000000001  L 2.5555555555555554 2.3999999999999995  L 11.5 2.3999999999999995  L 11.5 9.600000000000001  Z M 21.72222222222222 1.5  L 21.72222222222222 3  C 22.07494212962963 2.9999999999999987  22.376085069444443 3.1171874999999987  22.625651041666668 3.3515625  C 22.87521701388889 3.5859374999999987  23 3.8687499999999986  23 4.199999999999999  L 23 7.800000000000001  C 23 8.131249999999998  22.87521701388889 8.4140625  22.625651041666668 8.6484375  C 22.376085069444443 8.8828125  22.07494212962963 9  21.72222222222222 9  L 21.72222222222222 10.5  C 21.72222222222222 10.912500000000001  21.565827546296298 11.265625  21.253038194444443 11.559375  C 20.940248842592595 11.853124999999999  20.56423611111111 12  20.125 12  L 1.5972222222222223 12  C 1.1579861111111112 12  0.7819733796296297 11.853124999999999  0.4691840277777778 11.559375  C 0.15639467592592593 11.265625  0 10.912500000000001  0 10.5  L 0 1.5  C 0 1.0874999999999995  0.15639467592592593 0.7343749999999996  0.4691840277777778 0.44062500000000027  C 0.7819733796296297 0.1468749999999983  1.1579861111111112 0  1.5972222222222223 0  L 20.125 0  C 20.56423611111111 0  20.940248842592595 0.1468749999999983  21.253038194444443 0.44062500000000027  C 21.565827546296298 0.7343749999999996  21.72222222222222 1.0874999999999995  21.72222222222222 1.5  Z M 20.444444444444443 7.800000000000001  L 21.72222222222222 7.800000000000001  L 21.72222222222222 4.199999999999999  L 20.444444444444443 4.199999999999999  L 20.444444444444443 1.5  C 20.444444444444443 1.4124999999999983  20.41449652777778 1.3406249999999997  20.354600694444443 1.2843750000000003  C 20.29470486111111 1.2281249999999995  20.218171296296298 1.1999999999999997  20.125 1.1999999999999997  L 1.5972222222222223 1.1999999999999997  C 1.5040509259259263 1.1999999999999997  1.4275173611111112 1.2281249999999995  1.3676215277777777 1.2843750000000003  C 1.3077256944444444 1.3406249999999997  1.2777777777777777 1.4124999999999983  1.2777777777777777 1.5  L 1.2777777777777777 10.5  C 1.2777777777777777 10.587499999999999  1.3077256944444444 10.659375  1.3676215277777777 10.715625  C 1.4275173611111112 10.771875000000001  1.5040509259259263 10.8  1.5972222222222223 10.8  L 20.125 10.8  C 20.218171296296298 10.8  20.29470486111111 10.771875000000001  20.354600694444443 10.715625  C 20.41449652777778 10.659375  20.444444444444443 10.587499999999999  20.444444444444443 10.5  L 20.444444444444443 7.800000000000001  Z " fill-rule="nonzero" fill="#010101" stroke="none" transform="matrix(1 0 0 1 576 63 )" />
  </g>
</svg>