<?xml version="1.0" encoding="utf-8"?>
<svg version="1.1" xmlns:xlink="http://www.w3.org/1999/xlink" width="14px" height="13px" xmlns="http://www.w3.org/2000/svg">
  <g transform="matrix(1 0 0 1 -529 -62 )">
    <path d="M 3.259048970901348 9.97159090909091  C 3.6299976342559734 10.316287878787877  3.815471965933286 10.734848484848486  3.815471965933286 11.227272727272727  C 3.815471965933286 11.719696969696969  3.6299976342559734 12.138257575757578  3.259048970901348 12.482954545454545  C 2.8881003075467233 12.827651515151514  2.4376626449018217 13  1.907735982966643 13  C 1.3778093210314646 13  0.9273716583865627 12.827651515151514  0.5564229950319376 12.482954545454545  C 0.1854743316773125 12.138257575757578  0 11.719696969696969  0 11.227272727272727  C 0 10.734848484848486  0.1854743316773125 10.316287878787877  0.5564229950319376 9.97159090909091  C 0.9273716583865627 9.62689393939394  1.3778093210314646 9.454545454545455  1.907735982966643 9.454545454545455  C 2.4376626449018217 9.454545454545455  2.8881003075467233 9.62689393939394  3.259048970901348 9.97159090909091  Z M 8.102909865152592 9.537642045454545  C 8.550035486160397 10.436316287878787  8.816654837946533 11.378077651515152  8.902767920511002 12.362926136363637  C 8.91601608705938 12.535274621212123  8.859711379228768 12.683001893939394  8.733853797019163 12.806107954545455  C 8.614620298083748 12.935369318181818  8.45895434114029 13  8.266855926188786 13  L 6.9254790631653655 13  C 6.759876981310622 13  6.617459190915543 12.94921875  6.498225691980128 12.84765625  C 6.378992193044712 12.74609375  6.312751360302816 12.618371212121213  6.299503193754436 12.464488636363637  C 6.153773361722262 11.054924242424242  5.5427016796782596 9.850023674242426  4.466288147622427 8.84978693181818  C 3.3898746155665953 7.849550189393939  2.093210314643956 7.281723484848484  0.5762952448545068 7.146306818181819  C 0.41069316299976344 7.133996212121213  0.2732434350603265 7.072443181818181  0.16394606103619588 6.9616477272727275  C 0.054648687012065295 6.8508522727272725  0 6.718513257575758  0 6.564630681818181  L 0 5.3181818181818175  C 0 5.139678030303029  0.0695528743789922 4.995028409090908  0.20865862313697658 4.884232954545455  C 0.3212680387982021 4.779592803030303  0.46368582919328133 4.7272727272727275  0.6359119943222143 4.7272727272727275  L 0.6855926188786373 4.7272727272727275  C 1.7454459427489948 4.807291666666666  2.758930683700024 5.055042613636363  3.7260468417317245 5.4705255681818175  C 4.693162999763426 5.8860085227272725  5.550981783770997 6.4446022727272725  6.299503193754436 7.146306818181819  C 7.054648687012064 7.84185606060606  7.655784244144783 8.638967803030301  8.102909865152592 9.537642045454545  Z M 12.797728885734564 7.75106534090909  C 13.506505796072867 9.225260416666664  13.903950792524249 10.768702651515152  13.990063875088715 12.381392045454545  C 14.003312041637097 12.547585227272727  13.943695292169389 12.69223484848485  13.811213626685593 12.81534090909091  C 13.691980127750178 12.938446969696969  13.539626212443814 13  13.354151880766501 13  L 11.933286018452804 13  C 11.76105985332387 13  11.61367400047315 12.94614109848485  11.491128459900638 12.838423295454545  C 11.36858291932813 12.730705492424242  11.303998107404778 12.599905303030303  11.297374024130589 12.446022727272727  C 11.217885024840312 11.122632575757578  10.883368819493732 9.865411931818182  10.293825408090845 8.674360795454545  C 9.704281996687959 7.48330965909091  8.937544357700498 6.44921875  7.99361249112846 5.5720880681818175  C 7.049680624556424 4.694957386363637  5.936834634492548 3.9824810606060597  4.655074520936834 3.4346590909090904  C 3.3733144073811214 2.8868371212121193  2.0203453986278683 2.5729166666666647  0.596167494677076 2.4928977272727275  C 0.4305654128223326 2.4867424242424243  0.2898036432458008 2.4267282196969693  0.1738821859474805 2.312855113636363  C 0.05796072864916016 2.1989820075757565  0 2.0651041666666647  0 1.9112215909090904  L 0 0.5909090909090904  C 0 0.41856060606060497  0.06624083274189732 0.276988636363637  0.19872249822569196 0.1661931818181822  C 0.3179559971611072 0.055397727272727404  0.46368582919328133 0  0.6359119943222143 0  L 0.6657203690560681 0  C 2.401230186893778 0.08001893939393734  4.062219067896854 0.44933712121211955  5.648687012065294 1.1079545454545452  C 7.235154956233736 1.7665719696969693  8.6444286728176 2.6714015151515147  9.876508161816892 3.822443181818182  C 11.115211734090373 4.967329545454545  12.088951975396263 6.276870265151515  12.797728885734564 7.75106534090909  Z " fill-rule="nonzero" fill="#010101" stroke="none" transform="matrix(1 0 0 1 529 62 )" />
  </g>
</svg>