<?xml version="1.0" encoding="utf-8"?>
<svg version="1.1" xmlns:xlink="http://www.w3.org/1999/xlink" width="56px" height="50px" xmlns="http://www.w3.org/2000/svg">
  <defs>
    <mask fill="white" id="clip141">
      <path d="M 34.59895833333333 30.891927083333336  C 36.421875 29.264322916666664  37.33333333333333 27.30034722222222  37.33333333333333 25  C 37.33333333333333 22.699652777777775  36.421875 20.735677083333332  34.59895833333333 19.108072916666668  C 32.77604166666667 17.48046875  30.576388888888893 16.666666666666668  28 16.666666666666668  C 25.423611111111114 16.666666666666668  23.223958333333336 17.48046875  21.401041666666664 19.108072916666668  C 19.578125 20.735677083333332  18.666666666666664 22.699652777777775  18.666666666666664 25  C 18.666666666666664 27.30034722222222  19.578125 29.264322916666664  21.401041666666664 30.891927083333336  C 23.223958333333336 32.51953125  25.423611111111114 33.333333333333336  28 33.333333333333336  C 30.576388888888893 33.333333333333336  32.77604166666667 32.51953125  34.59895833333333 30.891927083333336  Z M 55.70833333333333 20.686848958333332  C 55.90277777777777 20.914713541666668  56 21.16970486111111  56 21.451822916666668  L 56 28.678385416666664  C 56 28.938802083333336  55.90277777777777 29.188368055555557  55.70833333333333 29.427083333333336  C 55.51388888888889 29.665798611111104  55.27083333333333 29.806857638888886  54.97916666666667 29.850260416666664  L 48.234375 30.76171875  C 47.77256944444445 31.93359375  47.29861111111112 32.92100694444444  46.8125 33.723958333333336  C 47.66319444444445 34.80902777777778  48.96354166666667 36.30642361111111  50.71354166666667 38.21614583333333  C 50.95659722222223 38.4765625  51.078125 38.74782986111111  51.078125 39.02994791666667  C 51.078125 39.31206597222223  50.96875 39.56163194444444  50.75 39.77864583333333  C 50.09375 40.58159722222223  48.890625 41.75347222222223  47.140625 43.29427083333333  C 45.390625 44.83506944444444  44.24826388888889 45.60546875  43.71354166666667 45.60546875  C 43.421875 45.60546875  43.10590277777778 45.5078125  42.765625 45.3125  L 37.734375 41.796875  C 36.66493055555556 42.29600694444444  35.55902777777778 42.70833333333333  34.41666666666667 43.03385416666667  C 34.02777777777778 45.98524305555556  33.67534722222223 48.00347222222223  33.359375 49.08854166666667  C 33.189236111111114 49.69618055555556  32.751736111111114 50  32.046875 50  L 23.953125 50  C 23.612847222222225 50  23.315104166666664 49.90776909722223  23.059895833333336 49.72330729166667  C 22.8046875 49.53884548611111  22.66493055555556 49.30555555555556  22.640625 49.0234375  L 21.619791666666664 43.03385416666667  C 20.428819444444446 42.68663194444444  19.335069444444446 42.28515625  18.338541666666664 41.82942708333333  L 13.197916666666668 45.3125  C 12.954861111111112 45.5078125  12.651041666666668 45.60546875  12.286458333333332 45.60546875  C 11.946180555555557 45.60546875  11.642361111111112 45.48611111111111  11.375 45.24739583333333  C 8.3125 42.7734375  6.307291666666666 40.95052083333333  5.359375 39.77864583333333  C 5.189236111111112 39.56163194444444  5.104166666666666 39.31206597222223  5.104166666666666 39.02994791666667  C 5.104166666666666 38.76953125  5.20138888888889 38.51996527777777  5.395833333333334 38.28125  C 5.760416666666666 37.82552083333333  6.380208333333334 37.10394965277778  7.255208333333333 36.116536458333336  C 8.130208333333332 35.129123263888886  8.786458333333332 34.36414930555555  9.223958333333332 33.821614583333336  C 8.567708333333332 32.736545138888886  8.069444444444445 31.662326388888886  7.729166666666667 30.598958333333336  L 1.0572916666666665 29.720052083333336  C 0.7413194444444445 29.676649305555557  0.48611111111111116 29.541015625  0.29166666666666663 29.313151041666664  C 0.09722222222222221 29.085286458333336  0 28.830295138888886  0 28.548177083333336  L 0 21.321614583333332  C 0 21.061197916666668  0.09722222222222221 20.811631944444443  0.29166666666666663 20.572916666666668  C 0.48611111111111116 20.33420138888889  0.717013888888889 20.19314236111111  0.984375 20.149739583333332  L 7.765625 19.23828125  C 8.105902777777779 18.24001736111111  8.57986111111111 17.24175347222222  9.1875 16.243489583333332  C 8.215277777777779 15.006510416666668  6.914930555555556 13.509114583333332  5.286458333333334 11.751302083333332  C 5.043402777777779 11.490885416666668  4.921875 11.23046875  4.921875 10.970052083333332  C 4.921875 10.753038194444443  5.03125 10.503472222222216  5.25 10.221354166666668  C 5.881944444444445 9.440104166666668  7.078993055555556 8.273654513888884  8.841145833333332 6.722005208333331  C 10.603298611111112 5.170355902777773  11.751736111111112 4.39453125  12.286458333333332 4.39453125  C 12.602430555555557 4.39453125  12.91840277777778 4.503038194444442  13.234375 4.720052083333331  L 18.265625 8.203125  C 19.335069444444446 7.703993055555553  20.440972222222225 7.291666666666669  21.583333333333336 6.966145833333331  C 21.972222222222225 4.014756944444442  22.32465277777778 1.9965277777777735  22.640625 0.9114583333333315  C 22.81076388888889 0.303819444444442  23.24826388888889 0  23.953125 0  L 32.046875 0  C 32.38715277777778 0  32.68489583333333 0.09223090277777346  32.94010416666667 0.2766927083333315  C 33.1953125 0.46115451388888395  33.33506944444444 0.694444444444442  33.359375 0.9765625  L 34.38020833333333 6.966145833333331  C 35.57118055555556 7.313368055555553  36.66493055555556 7.71484375  37.66145833333333 8.170572916666668  L 42.83854166666667 4.6875  C 43.05729166666667 4.4921875  43.34895833333333 4.39453125  43.71354166666667 4.39453125  C 44.02951388888889 4.39453125  44.33333333333333 4.503038194444442  44.625 4.720052083333331  C 47.76041666666667 7.302517361111111  49.765625 9.147135416666668  50.640625 10.25390625  C 50.81076388888889 10.42751736111111  50.89583333333333 10.666232638888884  50.89583333333333 10.970052083333332  C 50.89583333333333 11.23046875  50.79861111111112 11.480034722222216  50.60416666666667 11.71875  C 50.23958333333333 12.174479166666668  49.61979166666667 12.896050347222216  48.74479166666667 13.883463541666668  C 47.86979166666667 14.87087673611111  47.21354166666667 15.635850694444443  46.77604166666667 16.178385416666668  C 47.40798611111112 17.26345486111111  47.90625 18.326822916666664  48.27083333333333 19.368489583333332  L 54.94270833333333 20.279947916666668  C 55.25868055555556 20.323350694444443  55.51388888888889 20.458984374999993  55.70833333333333 20.686848958333332  Z " fill-rule="evenodd" />
    </mask>
  </defs>
  <g transform="matrix(1 0 0 1 -536 -243 )">
    <path d="M 34.59895833333333 30.891927083333336  C 36.421875 29.264322916666664  37.33333333333333 27.30034722222222  37.33333333333333 25  C 37.33333333333333 22.699652777777775  36.421875 20.735677083333332  34.59895833333333 19.108072916666668  C 32.77604166666667 17.48046875  30.576388888888893 16.666666666666668  28 16.666666666666668  C 25.423611111111114 16.666666666666668  23.223958333333336 17.48046875  21.401041666666664 19.108072916666668  C 19.578125 20.735677083333332  18.666666666666664 22.699652777777775  18.666666666666664 25  C 18.666666666666664 27.30034722222222  19.578125 29.264322916666664  21.401041666666664 30.891927083333336  C 23.223958333333336 32.51953125  25.423611111111114 33.333333333333336  28 33.333333333333336  C 30.576388888888893 33.333333333333336  32.77604166666667 32.51953125  34.59895833333333 30.891927083333336  Z M 55.70833333333333 20.686848958333332  C 55.90277777777777 20.914713541666668  56 21.16970486111111  56 21.451822916666668  L 56 28.678385416666664  C 56 28.938802083333336  55.90277777777777 29.188368055555557  55.70833333333333 29.427083333333336  C 55.51388888888889 29.665798611111104  55.27083333333333 29.806857638888886  54.97916666666667 29.850260416666664  L 48.234375 30.76171875  C 47.77256944444445 31.93359375  47.29861111111112 32.92100694444444  46.8125 33.723958333333336  C 47.66319444444445 34.80902777777778  48.96354166666667 36.30642361111111  50.71354166666667 38.21614583333333  C 50.95659722222223 38.4765625  51.078125 38.74782986111111  51.078125 39.02994791666667  C 51.078125 39.31206597222223  50.96875 39.56163194444444  50.75 39.77864583333333  C 50.09375 40.58159722222223  48.890625 41.75347222222223  47.140625 43.29427083333333  C 45.390625 44.83506944444444  44.24826388888889 45.60546875  43.71354166666667 45.60546875  C 43.421875 45.60546875  43.10590277777778 45.5078125  42.765625 45.3125  L 37.734375 41.796875  C 36.66493055555556 42.29600694444444  35.55902777777778 42.70833333333333  34.41666666666667 43.03385416666667  C 34.02777777777778 45.98524305555556  33.67534722222223 48.00347222222223  33.359375 49.08854166666667  C 33.189236111111114 49.69618055555556  32.751736111111114 50  32.046875 50  L 23.953125 50  C 23.612847222222225 50  23.315104166666664 49.90776909722223  23.059895833333336 49.72330729166667  C 22.8046875 49.53884548611111  22.66493055555556 49.30555555555556  22.640625 49.0234375  L 21.619791666666664 43.03385416666667  C 20.428819444444446 42.68663194444444  19.335069444444446 42.28515625  18.338541666666664 41.82942708333333  L 13.197916666666668 45.3125  C 12.954861111111112 45.5078125  12.651041666666668 45.60546875  12.286458333333332 45.60546875  C 11.946180555555557 45.60546875  11.642361111111112 45.48611111111111  11.375 45.24739583333333  C 8.3125 42.7734375  6.307291666666666 40.95052083333333  5.359375 39.77864583333333  C 5.189236111111112 39.56163194444444  5.104166666666666 39.31206597222223  5.104166666666666 39.02994791666667  C 5.104166666666666 38.76953125  5.20138888888889 38.51996527777777  5.395833333333334 38.28125  C 5.760416666666666 37.82552083333333  6.380208333333334 37.10394965277778  7.255208333333333 36.116536458333336  C 8.130208333333332 35.129123263888886  8.786458333333332 34.36414930555555  9.223958333333332 33.821614583333336  C 8.567708333333332 32.736545138888886  8.069444444444445 31.662326388888886  7.729166666666667 30.598958333333336  L 1.0572916666666665 29.720052083333336  C 0.7413194444444445 29.676649305555557  0.48611111111111116 29.541015625  0.29166666666666663 29.313151041666664  C 0.09722222222222221 29.085286458333336  0 28.830295138888886  0 28.548177083333336  L 0 21.321614583333332  C 0 21.061197916666668  0.09722222222222221 20.811631944444443  0.29166666666666663 20.572916666666668  C 0.48611111111111116 20.33420138888889  0.717013888888889 20.19314236111111  0.984375 20.149739583333332  L 7.765625 19.23828125  C 8.105902777777779 18.24001736111111  8.57986111111111 17.24175347222222  9.1875 16.243489583333332  C 8.215277777777779 15.006510416666668  6.914930555555556 13.509114583333332  5.286458333333334 11.751302083333332  C 5.043402777777779 11.490885416666668  4.921875 11.23046875  4.921875 10.970052083333332  C 4.921875 10.753038194444443  5.03125 10.503472222222216  5.25 10.221354166666668  C 5.881944444444445 9.440104166666668  7.078993055555556 8.273654513888884  8.841145833333332 6.722005208333331  C 10.603298611111112 5.170355902777773  11.751736111111112 4.39453125  12.286458333333332 4.39453125  C 12.602430555555557 4.39453125  12.91840277777778 4.503038194444442  13.234375 4.720052083333331  L 18.265625 8.203125  C 19.335069444444446 7.703993055555553  20.440972222222225 7.291666666666669  21.583333333333336 6.966145833333331  C 21.972222222222225 4.014756944444442  22.32465277777778 1.9965277777777735  22.640625 0.9114583333333315  C 22.81076388888889 0.303819444444442  23.24826388888889 0  23.953125 0  L 32.046875 0  C 32.38715277777778 0  32.68489583333333 0.09223090277777346  32.94010416666667 0.2766927083333315  C 33.1953125 0.46115451388888395  33.33506944444444 0.694444444444442  33.359375 0.9765625  L 34.38020833333333 6.966145833333331  C 35.57118055555556 7.313368055555553  36.66493055555556 7.71484375  37.66145833333333 8.170572916666668  L 42.83854166666667 4.6875  C 43.05729166666667 4.4921875  43.34895833333333 4.39453125  43.71354166666667 4.39453125  C 44.02951388888889 4.39453125  44.33333333333333 4.503038194444442  44.625 4.720052083333331  C 47.76041666666667 7.302517361111111  49.765625 9.147135416666668  50.640625 10.25390625  C 50.81076388888889 10.42751736111111  50.89583333333333 10.666232638888884  50.89583333333333 10.970052083333332  C 50.89583333333333 11.23046875  50.79861111111112 11.480034722222216  50.60416666666667 11.71875  C 50.23958333333333 12.174479166666668  49.61979166666667 12.896050347222216  48.74479166666667 13.883463541666668  C 47.86979166666667 14.87087673611111  47.21354166666667 15.635850694444443  46.77604166666667 16.178385416666668  C 47.40798611111112 17.26345486111111  47.90625 18.326822916666664  48.27083333333333 19.368489583333332  L 54.94270833333333 20.279947916666668  C 55.25868055555556 20.323350694444443  55.51388888888889 20.458984374999993  55.70833333333333 20.686848958333332  Z " fill-rule="nonzero" fill="#ffffff" stroke="none" fill-opacity="0.996078431372549" transform="matrix(1 0 0 1 536 243 )" />
    <path d="M 34.59895833333333 30.891927083333336  C 36.421875 29.264322916666664  37.33333333333333 27.30034722222222  37.33333333333333 25  C 37.33333333333333 22.699652777777775  36.421875 20.735677083333332  34.59895833333333 19.108072916666668  C 32.77604166666667 17.48046875  30.576388888888893 16.666666666666668  28 16.666666666666668  C 25.423611111111114 16.666666666666668  23.223958333333336 17.48046875  21.401041666666664 19.108072916666668  C 19.578125 20.735677083333332  18.666666666666664 22.699652777777775  18.666666666666664 25  C 18.666666666666664 27.30034722222222  19.578125 29.264322916666664  21.401041666666664 30.891927083333336  C 23.223958333333336 32.51953125  25.423611111111114 33.333333333333336  28 33.333333333333336  C 30.576388888888893 33.333333333333336  32.77604166666667 32.51953125  34.59895833333333 30.891927083333336  Z " stroke-width="4" stroke="#000000" fill="none" transform="matrix(1 0 0 1 536 243 )" mask="url(#clip141)" />
    <path d="M 55.70833333333333 20.686848958333332  C 55.90277777777777 20.914713541666668  56 21.16970486111111  56 21.451822916666668  L 56 28.678385416666664  C 56 28.938802083333336  55.90277777777777 29.188368055555557  55.70833333333333 29.427083333333336  C 55.51388888888889 29.665798611111104  55.27083333333333 29.806857638888886  54.97916666666667 29.850260416666664  L 48.234375 30.76171875  C 47.77256944444445 31.93359375  47.29861111111112 32.92100694444444  46.8125 33.723958333333336  C 47.66319444444445 34.80902777777778  48.96354166666667 36.30642361111111  50.71354166666667 38.21614583333333  C 50.95659722222223 38.4765625  51.078125 38.74782986111111  51.078125 39.02994791666667  C 51.078125 39.31206597222223  50.96875 39.56163194444444  50.75 39.77864583333333  C 50.09375 40.58159722222223  48.890625 41.75347222222223  47.140625 43.29427083333333  C 45.390625 44.83506944444444  44.24826388888889 45.60546875  43.71354166666667 45.60546875  C 43.421875 45.60546875  43.10590277777778 45.5078125  42.765625 45.3125  L 37.734375 41.796875  C 36.66493055555556 42.29600694444444  35.55902777777778 42.70833333333333  34.41666666666667 43.03385416666667  C 34.02777777777778 45.98524305555556  33.67534722222223 48.00347222222223  33.359375 49.08854166666667  C 33.189236111111114 49.69618055555556  32.751736111111114 50  32.046875 50  L 23.953125 50  C 23.612847222222225 50  23.315104166666664 49.90776909722223  23.059895833333336 49.72330729166667  C 22.8046875 49.53884548611111  22.66493055555556 49.30555555555556  22.640625 49.0234375  L 21.619791666666664 43.03385416666667  C 20.428819444444446 42.68663194444444  19.335069444444446 42.28515625  18.338541666666664 41.82942708333333  L 13.197916666666668 45.3125  C 12.954861111111112 45.5078125  12.651041666666668 45.60546875  12.286458333333332 45.60546875  C 11.946180555555557 45.60546875  11.642361111111112 45.48611111111111  11.375 45.24739583333333  C 8.3125 42.7734375  6.307291666666666 40.95052083333333  5.359375 39.77864583333333  C 5.189236111111112 39.56163194444444  5.104166666666666 39.31206597222223  5.104166666666666 39.02994791666667  C 5.104166666666666 38.76953125  5.20138888888889 38.51996527777777  5.395833333333334 38.28125  C 5.760416666666666 37.82552083333333  6.380208333333334 37.10394965277778  7.255208333333333 36.116536458333336  C 8.130208333333332 35.129123263888886  8.786458333333332 34.36414930555555  9.223958333333332 33.821614583333336  C 8.567708333333332 32.736545138888886  8.069444444444445 31.662326388888886  7.729166666666667 30.598958333333336  L 1.0572916666666665 29.720052083333336  C 0.7413194444444445 29.676649305555557  0.48611111111111116 29.541015625  0.29166666666666663 29.313151041666664  C 0.09722222222222221 29.085286458333336  0 28.830295138888886  0 28.548177083333336  L 0 21.321614583333332  C 0 21.061197916666668  0.09722222222222221 20.811631944444443  0.29166666666666663 20.572916666666668  C 0.48611111111111116 20.33420138888889  0.717013888888889 20.19314236111111  0.984375 20.149739583333332  L 7.765625 19.23828125  C 8.105902777777779 18.24001736111111  8.57986111111111 17.24175347222222  9.1875 16.243489583333332  C 8.215277777777779 15.006510416666668  6.914930555555556 13.509114583333332  5.286458333333334 11.751302083333332  C 5.043402777777779 11.490885416666668  4.921875 11.23046875  4.921875 10.970052083333332  C 4.921875 10.753038194444443  5.03125 10.503472222222216  5.25 10.221354166666668  C 5.881944444444445 9.440104166666668  7.078993055555556 8.273654513888884  8.841145833333332 6.722005208333331  C 10.603298611111112 5.170355902777773  11.751736111111112 4.39453125  12.286458333333332 4.39453125  C 12.602430555555557 4.39453125  12.91840277777778 4.503038194444442  13.234375 4.720052083333331  L 18.265625 8.203125  C 19.335069444444446 7.703993055555553  20.440972222222225 7.291666666666669  21.583333333333336 6.966145833333331  C 21.972222222222225 4.014756944444442  22.32465277777778 1.9965277777777735  22.640625 0.9114583333333315  C 22.81076388888889 0.303819444444442  23.24826388888889 0  23.953125 0  L 32.046875 0  C 32.38715277777778 0  32.68489583333333 0.09223090277777346  32.94010416666667 0.2766927083333315  C 33.1953125 0.46115451388888395  33.33506944444444 0.694444444444442  33.359375 0.9765625  L 34.38020833333333 6.966145833333331  C 35.57118055555556 7.313368055555553  36.66493055555556 7.71484375  37.66145833333333 8.170572916666668  L 42.83854166666667 4.6875  C 43.05729166666667 4.4921875  43.34895833333333 4.39453125  43.71354166666667 4.39453125  C 44.02951388888889 4.39453125  44.33333333333333 4.503038194444442  44.625 4.720052083333331  C 47.76041666666667 7.302517361111111  49.765625 9.147135416666668  50.640625 10.25390625  C 50.81076388888889 10.42751736111111  50.89583333333333 10.666232638888884  50.89583333333333 10.970052083333332  C 50.89583333333333 11.23046875  50.79861111111112 11.480034722222216  50.60416666666667 11.71875  C 50.23958333333333 12.174479166666668  49.61979166666667 12.896050347222216  48.74479166666667 13.883463541666668  C 47.86979166666667 14.87087673611111  47.21354166666667 15.635850694444443  46.77604166666667 16.178385416666668  C 47.40798611111112 17.26345486111111  47.90625 18.326822916666664  48.27083333333333 19.368489583333332  L 54.94270833333333 20.279947916666668  C 55.25868055555556 20.323350694444443  55.51388888888889 20.458984374999993  55.70833333333333 20.686848958333332  Z " stroke-width="4" stroke="#000000" fill="none" transform="matrix(1 0 0 1 536 243 )" mask="url(#clip141)" />
  </g>
</svg>