<?xml version="1.0" encoding="utf-8"?>
<svg version="1.1" xmlns:xlink="http://www.w3.org/1999/xlink" width="22px" height="27px" xmlns="http://www.w3.org/2000/svg">
  <g transform="matrix(1 0 0 1 -536 -185 )">
    <path d="M 6.111111111111112 8.590909090909092  L 6.111111111111112 12.272727272727273  L 15.88888888888889 12.272727272727273  L 15.88888888888889 8.590909090909092  C 15.88888888888889 7.235795454545453  15.411458333333334 6.078835227272727  14.456597222222223 5.120028409090907  C 13.50173611111111 4.161221590909093  12.349537037037038 3.6818181818181817  11 3.6818181818181817  C 9.650462962962964 3.6818181818181817  8.49826388888889 4.161221590909093  7.543402777777777 5.120028409090907  C 6.588541666666667 6.078835227272727  6.111111111111112 7.235795454545453  6.111111111111112 8.590909090909092  Z M 21.46527777777778 12.809659090909092  C 21.821759259259263 13.167613636363637  22 13.602272727272725  22 14.113636363636363  L 22 25.15909090909091  C 22 25.670454545454547  21.821759259259263 26.105113636363633  21.46527777777778 26.46306818181818  C 21.1087962962963 26.821022727272727  20.675925925925927 27  20.166666666666664 27  L 1.8333333333333333 27  C 1.3240740740740744 27  0.8912037037037038 26.821022727272727  0.5347222222222222 26.46306818181818  C 0.17824074074074073 26.105113636363633  0 25.670454545454547  0 25.15909090909091  L 0 14.113636363636363  C 0 13.602272727272725  0.17824074074074073 13.167613636363637  0.5347222222222222 12.809659090909092  C 0.8912037037037038 12.451704545454545  1.3240740740740744 12.272727272727273  1.8333333333333333 12.272727272727273  L 2.444444444444444 12.272727272727273  L 2.444444444444444 8.590909090909092  C 2.444444444444444 6.2386363636363615  3.2847222222222223 4.21875  4.965277777777778 2.53125  C 6.645833333333333 0.84375  8.657407407407408 0  11 0  C 13.342592592592593 0  15.354166666666666 0.84375  17.03472222222222 2.53125  C 18.71527777777778 4.21875  19.555555555555554 6.2386363636363615  19.555555555555554 8.590909090909092  L 19.555555555555554 12.272727272727273  L 20.166666666666664 12.272727272727273  C 20.675925925925927 12.272727272727273  21.1087962962963 12.451704545454545  21.46527777777778 12.809659090909092  Z " fill-rule="nonzero" fill="#000000" stroke="none" transform="matrix(1 0 0 1 536 185 )" />
  </g>
</svg>