<?xml version="1.0" encoding="utf-8"?>
<svg version="1.1" xmlns:xlink="http://www.w3.org/1999/xlink" width="16px" height="11px" xmlns="http://www.w3.org/2000/svg">
  <g transform="matrix(1 0 0 1 -161 -7 )">
    <path d="M 11.879464285714286 8.617621527777777  C 13.072916666666668 7.844184027777777  14.065476190476192 6.804976851851849  14.857142857142858 5.5  C 13.952380952380953 3.997685185185185  12.818452380952381 2.874131944444444  11.455357142857142 2.1293402777777772  C 11.818452380952381 2.7913773148148135  12 3.507523148148148  12 4.277777777777777  C 12 5.455439814814813  11.608630952380953 6.462818287037036  10.825892857142858 7.299913194444445  C 10.043154761904763 8.13700810185185  9.101190476190476 8.555555555555555  8 8.555555555555555  C 6.898809523809525 8.555555555555555  5.956845238095239 8.13700810185185  5.174107142857143 7.299913194444445  C 4.391369047619048 6.462818287037036  4 5.455439814814813  4 4.277777777777777  C 4 3.507523148148148  4.1815476190476195 2.7913773148148135  4.544642857142857 2.1293402777777772  C 3.1815476190476195 2.874131944444444  2.047619047619048 3.997685185185185  1.1428571428571428 5.5  C 1.9345238095238098 6.804976851851849  2.9270833333333335 7.844184027777777  4.120535714285714 8.617621527777777  C 5.313988095238096 9.391059027777777  6.607142857142857 9.777777777777777  8 9.777777777777777  C 9.392857142857142 9.777777777777777  10.686011904761907 9.391059027777777  11.879464285714286 8.617621527777777  Z M 8.303571428571429 2.1579861111111116  C 8.386904761904763 2.068865740740741  8.428571428571429 1.9606481481481477  8.428571428571429 1.833333333333333  C 8.428571428571429 1.7060185185185182  8.386904761904763 1.597800925925925  8.303571428571429 1.5086805555555558  C 8.220238095238097 1.419560185185184  8.119047619047619 1.3749999999999987  8 1.375  C 7.255952380952381 1.3749999999999987  6.617559523809525 1.6598668981481477  6.084821428571429 2.229600694444444  C 5.552083333333334 2.799334490740741  5.285714285714286 3.482060185185185  5.285714285714286 4.277777777777777  C 5.285714285714286 4.405092592592592  5.327380952380953 4.513310185185185  5.410714285714286 4.602430555555555  C 5.4940476190476195 4.691550925925925  5.595238095238096 4.736111111111112  5.714285714285714 4.736111111111112  C 5.833333333333334 4.736111111111112  5.93452380952381 4.691550925925925  6.017857142857143 4.602430555555555  C 6.101190476190476 4.513310185185185  6.142857142857143 4.405092592592592  6.142857142857143 4.277777777777777  C 6.142857142857143 3.730324074074074  6.324404761904762 3.2624421296296298  6.6875 2.874131944444444  C 7.050595238095239 2.485821759259259  7.488095238095239 2.291666666666666  8 2.291666666666667  C 8.119047619047619 2.291666666666666  8.220238095238097 2.2471064814814805  8.303571428571429 2.1579861111111116  Z M 15.821428571428571 4.841145833333333  C 15.940476190476192 5.0639467592592595  16 5.283564814814813  16 5.5  C 16 5.716435185185184  15.940476190476192 5.9360532407407405  15.821428571428571 6.158854166666666  C 14.98809523809524 7.622974537037036  13.867559523809527 8.795862268518519  12.459821428571429 9.67751736111111  C 11.052083333333334 10.559172453703704  9.565476190476192 11  8 11  C 6.43452380952381 11  4.947916666666667 10.557581018518519  3.5401785714285716 9.672743055555555  C 2.1324404761904763 8.787905092592592  1.011904761904762 7.616608796296296  0.17857142857142858 6.158854166666666  C 0.05952380952380952 5.9360532407407405  0 5.716435185185184  0 5.5  C 0 5.283564814814813  0.05952380952380952 5.0639467592592595  0.17857142857142858 4.841145833333333  C 1.011904761904762 3.3833912037037033  2.1324404761904763 2.2120949074074066  3.5401785714285716 1.3272569444444442  C 4.947916666666667 0.4424189814814806  6.43452380952381 0  8 0  C 9.565476190476192 0  11.052083333333334 0.4424189814814806  12.459821428571429 1.3272569444444442  C 13.867559523809527 2.2120949074074066  14.98809523809524 3.3833912037037033  15.821428571428571 4.841145833333333  Z " fill-rule="nonzero" fill="#000000" stroke="none" transform="matrix(1 0 0 1 161 7 )" />
  </g>
</svg>