<?xml version="1.0" encoding="utf-8"?>
<svg version="1.1" xmlns:xlink="http://www.w3.org/1999/xlink" width="43px" height="43px" xmlns="http://www.w3.org/2000/svg">
  <g transform="matrix(1 0 0 1 -25 -23 )">
    <path d="M 30.042410714285715 37.82896205357143  C 32.681919642857146 36.4292224702381  34.84951636904763 34.52957589285714  36.545200892857146 32.13002232142857  C 36.19326636904763 29.65048363095238  35.493396577380956 27.59086681547619  34.445591517857146 25.951171875  C 33.397786458333336 24.31147693452381  31.922061011904766 23.36365327380952  30.01841517857143 23.10770089285714  C 28.946614583333336 24.2914806547619  27.67085193452381 25.2153087797619  26.191127232142854 25.87918526785714  C 24.71140252976191 26.54306175595238  23.147693452380956 26.875  21.5 26.875  C 19.852306547619047 26.875  18.2885974702381 26.54306175595238  16.808872767857142 25.87918526785714  C 15.329148065476192 25.2153087797619  14.053385416666668 24.2914806547619  12.981584821428573 23.10770089285714  C 11.077938988095237 23.36365327380952  9.602213541666668 24.31147693452381  8.554408482142858 25.951171875  C 7.506603422619048 27.59086681547619  6.806733630952381 29.65048363095238  6.454799107142858 32.13002232142857  C 8.150483630952381 34.52957589285714  10.318080357142858 36.4292224702381  12.957589285714285 37.82896205357143  C 15.597098214285715 39.22870163690476  18.444568452380956 39.92857142857143  21.5 39.92857142857143  C 24.55543154761905 39.92857142857143  27.402901785714285 39.22870163690476  30.042410714285715 37.82896205357143  Z M 28.01478794642857 21.87193080357143  C 29.814453125 20.072265625  30.714285714285715 17.900669642857146  30.714285714285715 15.357142857142856  C 30.714285714285715 12.81361607142857  29.814453125 10.642020089285715  28.01478794642857 8.842354910714285  C 26.215122767857146 7.042689732142855  24.043526785714285 6.142857142857145  21.5 6.142857142857145  C 18.956473214285715 6.142857142857145  16.784877232142858 7.042689732142855  14.985212053571427 8.842354910714285  C 13.185546875 10.642020089285715  12.285714285714285 12.81361607142857  12.285714285714285 15.357142857142856  C 12.285714285714285 17.900669642857146  13.185546875 20.072265625  14.985212053571427 21.87193080357143  C 16.784877232142858 23.67159598214286  18.956473214285715 24.57142857142857  21.5 24.57142857142857  C 24.043526785714285 24.57142857142857  26.215122767857146 23.67159598214286  28.01478794642857 21.87193080357143  Z M 41.296316964285715 13.14955357142857  C 42.43210565476191 15.80505952380952  43 18.588541666666664  43 21.5  C 43 24.41145833333333  42.43210565476191 27.19094122023809  41.296316964285715 29.838448660714285  C 40.16052827380953 32.485956101190474  38.63681175595239 34.77353050595238  36.725167410714285 36.701171875  C 34.8135230654762 38.62881324404761  32.52994791666667 40.160528273809526  29.874441964285715 41.296316964285715  C 27.218936011904766 42.432105654761905  24.427455357142854 43  21.5 43  C 18.588541666666668 43  15.805059523809526 42.432105654761905  13.149553571428573 41.296316964285715  C 10.49404761904762 40.160528273809526  8.206473214285714 38.6328125  6.286830357142858 36.71316964285714  C 4.3671875 34.793526785714285  2.8394717261904763 32.50595238095238  1.7036830357142856 29.85044642857143  C 0.5678943452380951 27.194940476190474  0 24.41145833333333  0 21.5  C 0 18.588541666666664  0.5678943452380951 15.80505952380952  1.7036830357142856 13.14955357142857  C 2.8394717261904763 10.494047619047615  4.3671875 8.206473214285715  6.286830357142858 6.286830357142855  C 8.206473214285714 4.3671875  10.49404761904762 2.839471726190475  13.149553571428573 1.7036830357142851  C 15.805059523809526 0.567894345238095  18.588541666666668 0  21.5 0  C 24.411458333333336 0  27.19494047619048 0.567894345238095  29.85044642857143 1.7036830357142851  C 32.50595238095239 2.839471726190475  34.793526785714285 4.3671875  36.713169642857146 6.286830357142855  C 38.63281250000001 8.206473214285715  40.16052827380953 10.494047619047615  41.296316964285715 13.14955357142857  Z " fill-rule="nonzero" fill="#000000" stroke="none" transform="matrix(1 0 0 1 25 23 )" />
  </g>
</svg>