<?xml version="1.0" encoding="utf-8"?>
<svg version="1.1" xmlns:xlink="http://www.w3.org/1999/xlink" width="91px" height="64px" xmlns="http://www.w3.org/2000/svg">
  <g transform="matrix(1 0 0 1 -132 -165 )">
    <path d="M 135.23493262075928 186.8762713980211  C 135.23493262075928 176.17505219631144  143.90998481707072 167.5  154.61120401878037 167.5  C 154.61120401878037 167.5  201.12372860197803 167.5  201.12372860197803 167.5  C 211.82494780368768 167.5  220.49999999999912 176.17505219631144  220.49999999999912 186.8762713980211  C 220.49999999999912 197.5774905997307  211.82494780368768 206.25254279604218  201.12372860197803 206.25254279604218  C 201.12372860197803 206.25254279604218  188.95641872463028 206.25254279604218  188.95641872463028 206.25254279604218  C 188.95641872463028 206.25254279604218  170.0276860401471 223.1296243430496  170.0276860401471 223.1296243430496  C 170.0276860401471 223.1296243430496  167.83917130786529 206.25254279604218  167.83917130786529 206.25254279604218  C 167.83917130786529 206.25254279604218  154.61120401878037 206.25254279604218  154.61120401878037 206.25254279604218  C 143.90998481707072 206.25254279604218  135.23493262075928 197.5774905997307  135.23493262075928 186.8762713980211  Z " fill-rule="nonzero" fill="#ffffff" stroke="none" />
    <path d="M 132.73493262075928 186.8762713980211  C 132.73493262075928 174.79434032173447  142.52927294249375 165  154.61120401878037 165  C 154.61120401878037 165  201.12372860197803 165  201.12372860197803 165  C 213.20565967826462 165  222.99999999999912 174.79434032173447  222.99999999999912 186.8762713980211  C 222.99999999999912 198.9582024743077  213.20565967826462 208.75254279604218  201.12372860197803 208.75254279604218  C 201.12372860197803 208.75254279604218  189.90909090909133 208.75254279604218  189.90909090909133 208.75254279604218  C 189.90909090909133 208.75254279604218  168.15733333333245 228.14666666666744  168.15733333333245 228.14666666666744  C 168.15733333333245 228.14666666666744  165.64242424242462 208.75254279604218  165.64242424242462 208.75254279604218  C 165.64242424242462 208.75254279604218  154.61120401878037 208.75254279604218  154.61120401878037 208.75254279604218  C 142.52927294249375 208.75254279604218  132.73493262075928 198.9582024743077  132.73493262075928 186.8762713980211  Z M 135.73493262075928 186.8762713980211  C 135.73493262075928 197.3013482248153  144.18612719198612 205.75254279604218  154.61120401878037 205.75254279604218  C 154.61120401878037 205.75254279604218  168.27852072095342 205.75254279604218  168.27852072095342 205.75254279604218  C 168.27852072095342 205.75254279604218  170.40175658151003 222.12621587832606  170.40175658151003 222.12621587832606  C 170.40175658151003 222.12621587832606  188.76588428773806 205.75254279604218  188.76588428773806 205.75254279604218  C 188.76588428773806 205.75254279604218  201.12372860197803 205.75254279604218  201.12372860197803 205.75254279604218  C 211.54880542877225 205.75254279604218  219.99999999999912 197.30134822481534  219.99999999999912 186.8762713980211  C 219.99999999999912 176.45119457122684  211.54880542877225 168  201.12372860197803 168  C 201.12372860197803 168  154.61120401878037 168  154.61120401878037 168  C 144.18612719198612 168  135.73493262075928 176.45119457122684  135.73493262075928 186.8762713980211  Z " fill-rule="nonzero" fill="#000000" stroke="none" />
  </g>
</svg>