<?xml version="1.0" encoding="utf-8"?>
<svg version="1.1" xmlns:xlink="http://www.w3.org/1999/xlink" width="22px" height="26px" xmlns="http://www.w3.org/2000/svg">
  <g transform="matrix(1 0 0 1 -314 -271 )">
    <path d="M 6.111111111111112 8.272727272727273  L 6.111111111111112 11.81818181818182  L 15.88888888888889 11.81818181818182  L 15.88888888888889 8.272727272727273  C 15.88888888888889 6.967803030303029  15.411458333333334 5.853693181818181  14.456597222222223 4.930397727272726  C 13.50173611111111 4.007102272727274  12.349537037037038 3.545454545454545  11 3.545454545454545  C 9.650462962962964 3.545454545454545  8.49826388888889 4.007102272727274  7.543402777777777 4.930397727272726  C 6.588541666666667 5.853693181818181  6.111111111111112 6.967803030303029  6.111111111111112 8.272727272727273  Z M 21.46527777777778 12.335227272727273  C 21.821759259259263 12.679924242424242  22 13.098484848484846  22 13.59090909090909  L 22 24.22727272727273  C 22 24.719696969696972  21.821759259259263 25.138257575757574  21.46527777777778 25.482954545454547  C 21.1087962962963 25.827651515151516  20.675925925925927 26  20.166666666666664 26  L 1.8333333333333333 26  C 1.3240740740740744 26  0.8912037037037038 25.827651515151516  0.5347222222222222 25.482954545454547  C 0.17824074074074073 25.138257575757574  0 24.719696969696972  0 24.22727272727273  L 0 13.59090909090909  C 0 13.098484848484846  0.17824074074074073 12.679924242424242  0.5347222222222222 12.335227272727273  C 0.8912037037037038 11.990530303030303  1.3240740740740744 11.81818181818182  1.8333333333333333 11.81818181818182  L 2.444444444444444 11.81818181818182  L 2.444444444444444 8.272727272727273  C 2.444444444444444 6.007575757575755  3.2847222222222223 4.0625  4.965277777777778 2.4375  C 6.645833333333333 0.8125  8.657407407407408 0  11 0  C 13.342592592592593 0  15.354166666666666 0.8125  17.03472222222222 2.4375  C 18.71527777777778 4.0625  19.555555555555554 6.007575757575755  19.555555555555554 8.272727272727273  L 19.555555555555554 11.81818181818182  L 20.166666666666664 11.81818181818182  C 20.675925925925927 11.81818181818182  21.1087962962963 11.990530303030303  21.46527777777778 12.335227272727273  Z " fill-rule="nonzero" fill="#000000" stroke="none" transform="matrix(1 0 0 1 314 271 )" />
  </g>
</svg>