<?xml version="1.0" encoding="utf-8"?>
<svg version="1.1" xmlns:xlink="http://www.w3.org/1999/xlink" width="16px" height="16px" xmlns="http://www.w3.org/2000/svg">
  <g transform="matrix(1 0 0 1 -2 -1 )">
    <path d="M 10 1.5  C 14.200000000000001 1.5  17.5 4.8  17.5 9  C 17.5 13.200000000000001  14.200000000000001 16.5  10 16.5  C 5.8 16.5  2.5 13.200000000000001  2.5 9  C 2.5 4.8  5.8 1.5  10 1.5  Z " fill-rule="nonzero" fill="#ffffff" stroke="none" />
    <path d="M 10 1.5  C 14.200000000000001 1.5  17.5 4.8  17.5 9  C 17.5 13.200000000000001  14.200000000000001 16.5  10 16.5  C 5.8 16.5  2.5 13.200000000000001  2.5 9  C 2.5 4.8  5.8 1.5  10 1.5  Z " stroke-width="1" stroke="#000000" fill="none" stroke-opacity="0.34901960784313724" />
  </g>
</svg>