<?xml version="1.0" encoding="utf-8"?>
<svg version="1.1" xmlns:xlink="http://www.w3.org/1999/xlink" width="8px" height="8px" xmlns="http://www.w3.org/2000/svg">
  <g transform="matrix(1 0 0 1 -393 -229 )">
    <path d="M 6.484777517564403 4.99609156895589  C 6.626854020296644 4.678950307091011  6.697892271662764 4.346175321049692  6.697892271662764 3.9977666108319374  C 6.697892271662764 3.6493579006141816  6.626854020296644 3.316582914572864  6.484777517564403 2.9994416527079846  C 6.342701014832163 2.6823003908431042  6.150663544106167 2.4083379862274326  5.908665105386417 2.1775544388609713  C 5.666666666666667 1.9467708914945092  5.379391100702576 1.763632979713381  5.046838407494145 1.6281407035175883  C 4.714285714285714 1.492648427321793  4.365339578454333 1.4249022892238976  4 1.4249022892238976  C 3.6346604215456675 1.4249022892238976  3.2857142857142856 1.492648427321793  2.9531615925058547 1.6281407035175883  C 2.620608899297424 1.763632979713381  2.3333333333333335 1.9467708914945092  2.091334894613583 2.1775544388609713  C 1.8493364558938332 2.4083379862274326  1.657298985167838 2.6823003908431042  1.515222482435597 2.9994416527079846  C 1.373145979703357 3.316582914572864  1.3021077283372364 3.6493579006141816  1.3021077283372364 3.9977666108319374  C 1.3021077283372364 4.346175321049692  1.373145979703357 4.678950307091011  1.515222482435597 4.99609156895589  C 1.657298985167838 5.313232830820771  1.8493364558938332 5.587195235436441  2.091334894613583 5.8179787828029035  C 2.3333333333333335 6.048762330169366  2.620608899297424 6.231900241950494  2.9531615925058547 6.367392518146287  C 3.2857142857142856 6.50288479434208  3.6346604215456675 6.570630932439977  4 6.570630932439977  C 4.365339578454333 6.570630932439977  4.714285714285714 6.50288479434208  5.046838407494145 6.367392518146287  C 5.379391100702576 6.231900241950494  5.666666666666667 6.048762330169366  5.908665105386417 5.8179787828029035  C 6.150663544106167 5.587195235436441  6.342701014832163 5.313232830820771  6.484777517564403 4.99609156895589  Z M 7.971896955503513 5.105527638190955  C 8 5.141261864879955  8.00624512099922 5.184440722129164  7.990632318501171 5.235064209938582  C 7.978142076502733 5.279731993299833  7.946916471506635 5.309510515540666  7.8969555035128804 5.3243997766610835  L 6.529274004683841 5.75321049692909  L 6.529274004683841 7.120044667783361  C 6.529274004683841 7.167690303368696  6.508977361436378 7.206402382281778  6.468384074941452 7.236180904522613  C 6.421545667447306 7.265959426763447  6.376268540202967 7.271915131211614  6.332552693208431 7.254048017867113  L 4.964871194379391 6.834170854271357  L 4.121779859484778 7.941931881630374  C 4.090554254488682 7.980643960543459  4.049960967993755 8  4 8  C 3.9500390320062455 8  3.9094457455113196 7.980643960543459  3.8782201405152223 7.941931881630374  L 3.0351288056206087 6.834170854271357  L 1.6674473067915692 7.254048017867113  C 1.6237314597970334 7.271915131211614  1.5784543325526932 7.265959426763447  1.531615925058548 7.236180904522613  C 1.4910226385636223 7.206402382281778  1.4707259953161593 7.167690303368696  1.4707259953161593 7.120044667783361  L 1.4707259953161593 5.75321049692909  L 0.10304449648711944 5.3243997766610835  C 0.053083528493364535 5.309510515540666  0.02185792349726775 5.279731993299833  0.00936768149882904 5.235064209938582  C -0.006245120999219337 5.184440722129164  0 5.141261864879955  0.02810304449648712 5.105527638190955  L 0.8711943793911007 3.9977666108319374  L 0.02810304449648712 2.89000558347292  C 0 2.8512935045598358  -0.006245120999219337 2.808114647310626  0.00936768149882904 2.7604690117252932  C 0.02185792349726775 2.7158012283640423  0.053083528493364535 2.6860227061232083  0.10304449648711944 2.671133445002792  L 1.4707259953161593 2.2423227247347848  L 1.4707259953161593 0.8754885538805137  C 1.4707259953161593 0.827842918295179  1.4910226385636223 0.7891308393820946  1.531615925058548 0.7593523171412615  C 1.5784543325526932 0.7295737949004275  1.6237314597970334 0.7236180904522609  1.6674473067915692 0.7414852037967616  L 3.0351288056206087 1.1613623673925177  L 3.8782201405152223 0.05360134003350048  C 3.90632318501171 0.017867113344499863  3.946916471506636 0  4 0  C 4.053083528493365 0  4.0936768149882905 0.017867113344499863  4.121779859484778 0.05360134003350048  L 4.964871194379391 1.1613623673925177  L 6.332552693208431 0.7414852037967616  C 6.376268540202967 0.7236180904522609  6.421545667447306 0.7295737949004275  6.468384074941452 0.7593523171412615  C 6.508977361436378 0.7891308393820946  6.529274004683841 0.827842918295179  6.529274004683841 0.8754885538805137  L 6.529274004683841 2.2423227247347848  L 7.8969555035128804 2.671133445002792  C 7.946916471506635 2.6860227061232083  7.978142076502733 2.7158012283640423  7.990632318501171 2.7604690117252932  C 8.00624512099922 2.808114647310626  8 2.8512935045598358  7.971896955503513 2.89000558347292  L 7.128805620608899 3.9977666108319374  L 7.971896955503513 5.105527638190955  Z " fill-rule="nonzero" fill="#000000" stroke="none" transform="matrix(1 0 0 1 393 229 )" />
  </g>
</svg>