<?xml version="1.0" encoding="utf-8"?>
<svg version="1.1" xmlns:xlink="http://www.w3.org/1999/xlink" width="15px" height="15px" xmlns="http://www.w3.org/2000/svg">
  <g transform="matrix(1 0 0 1 -556 -225 )">
    <path d="M 12.158957845433257 9.367671691792294  C 12.425351288056207 8.773031825795645  12.558548009367682 8.149078726968174  12.558548009367682 7.4958123953098825  C 12.558548009367682 6.84254606365159  12.425351288056207 6.21859296482412  12.158957845433257 5.623953098827471  C 11.892564402810306 5.0293132328308205  11.532494145199063 4.515633724176436  11.078747072599532 4.082914572864321  C 10.625 3.6501954215522048  10.08635831381733 3.306811836962589  9.462822014051522 3.0527638190954782  C 8.839285714285715 2.798715801228362  8.185011709601874 2.671691792294808  7.5 2.671691792294808  C 6.8149882903981265 2.671691792294808  6.160714285714286 2.798715801228362  5.537177985948477 3.0527638190954782  C 4.91364168618267 3.306811836962589  4.375 3.6501954215522048  3.9212529274004684 4.082914572864321  C 3.467505854800937 4.515633724176436  3.107435597189696 5.0293132328308205  2.8410421545667446 5.623953098827471  C 2.5746487119437944 6.21859296482412  2.441451990632318 6.84254606365159  2.441451990632318 7.4958123953098825  C 2.441451990632318 8.149078726968174  2.5746487119437944 8.773031825795645  2.8410421545667446 9.367671691792294  C 3.107435597189696 9.962311557788945  3.467505854800937 10.475991066443328  3.9212529274004684 10.908710217755445  C 4.375 11.34142936906756  4.91364168618267 11.684812953657175  5.537177985948477 11.938860971524289  C 6.160714285714286 12.1929089893914  6.8149882903981265 12.319932998324957  7.5 12.319932998324957  C 8.185011709601874 12.319932998324957  8.839285714285715 12.1929089893914  9.462822014051522 11.938860971524289  C 10.08635831381733 11.684812953657175  10.625 11.34142936906756  11.078747072599532 10.908710217755445  C 11.532494145199063 10.475991066443328  11.892564402810306 9.962311557788945  12.158957845433257 9.367671691792294  Z M 14.947306791569087 9.57286432160804  C 15 9.639865996649917  15.011709601873536 9.720826353992182  14.982435597189696 9.81574539363484  C 14.959016393442624 9.899497487437186  14.90046838407494 9.955332216638748  14.80679156908665 9.983249581239532  L 12.242388758782202 10.787269681742044  L 12.242388758782202 13.350083752093802  C 12.242388758782202 13.439419318816304  12.20433255269321 13.512004466778334  12.128220140515221 13.5678391959799  C 12.0403981264637 13.623673925181464  11.955503512880563 13.634840871021776  11.873536299765808 13.601340033500836  L 9.30913348946136 12.814070351758794  L 7.728337236533958 14.891122278056951  C 7.669789227166278 14.963707426018985  7.5936768149882905 15  7.5 15  C 7.40632318501171 15  7.330210772833724 14.963707426018985  7.271662763466042 14.891122278056951  L 5.690866510538641 12.814070351758794  L 3.126463700234192 13.601340033500836  C 3.0444964871194378 13.634840871021776  2.9596018735363 13.623673925181464  2.871779859484777 13.5678391959799  C 2.795667447306792 13.512004466778334  2.757611241217799 13.439419318816304  2.757611241217799 13.350083752093802  L 2.757611241217799 10.787269681742044  L 0.19320843091334894 9.983249581239532  C 0.0995316159250585 9.955332216638748  0.04098360655737703 9.899497487437186  0.01756440281030445 9.81574539363484  C -0.011709601873536257 9.720826353992182  0 9.639865996649917  0.05269320843091335 9.57286432160804  L 1.6334894613583137 7.4958123953098825  L 0.05269320843091335 5.418760469011725  C 0 5.346175321049692  -0.011709601873536257 5.265214963707424  0.01756440281030445 5.175879396984925  C 0.04098360655737703 5.092127303182579  0.0995316159250585 5.036292573981015  0.19320843091334894 5.008375209380235  L 2.757611241217799 4.204355108877722  L 2.757611241217799 1.6415410385259632  C 2.757611241217799 1.5522054718034606  2.795667447306792 1.4796203238414274  2.871779859484777 1.4237855946398654  C 2.9596018735363 1.3679508654383015  3.0444964871194378 1.3567839195979892  3.126463700234192 1.390284757118928  L 5.690866510538641 2.177554438860971  L 7.271662763466042 0.1005025125628134  C 7.324355971896956 0.03350083752093724  7.400468384074943 0  7.5 0  C 7.599531615925058 0  7.6756440281030445 0.03350083752093724  7.728337236533958 0.1005025125628134  L 9.30913348946136 2.177554438860971  L 11.873536299765808 1.390284757118928  C 11.955503512880563 1.3567839195979892  12.0403981264637 1.3679508654383015  12.128220140515221 1.4237855946398654  C 12.20433255269321 1.4796203238414274  12.242388758782202 1.5522054718034606  12.242388758782202 1.6415410385259632  L 12.242388758782202 4.204355108877722  L 14.80679156908665 5.008375209380235  C 14.90046838407494 5.036292573981015  14.959016393442624 5.092127303182579  14.982435597189696 5.175879396984925  C 15.011709601873536 5.265214963707424  15 5.346175321049692  14.947306791569087 5.418760469011725  L 13.366510538641686 7.4958123953098825  L 14.947306791569087 9.57286432160804  Z " fill-rule="nonzero" fill="#000000" stroke="none" transform="matrix(1 0 0 1 556 225 )" />
  </g>
</svg>