<?xml version="1.0" encoding="utf-8"?>
<svg version="1.1" xmlns:xlink="http://www.w3.org/1999/xlink" width="13px" height="12px" xmlns="http://www.w3.org/2000/svg">
  <g transform="matrix(1 0 0 1 -538 -166 )">
    <path d="M 8.8828125 7.349716446124765  L 9.265625 6.994328922495274  L 11.2734375 5.103969754253308  L 8.4921875 4.710775047258979  L 7.976562499999999 4.6351606805293  L 7.7421875 4.181474480151229  L 6.5 1.746691871455576  L 6.5 9.028355387523629  L 6.960937499999999 9.262759924385634  L 9.4453125 10.533081285444235  L 8.9765625 7.848771266540643  L 8.8828125 7.349716446124765  Z M 12.984375 4.563327032136106  C 13.031250000000002 4.701953371140516  12.968750000000002 4.851921865154378  12.796875 5.013232514177694  L 9.9609375 7.689981096408317  L 10.6328125 11.47069943289225  C 10.658854166666668 11.637051039697543  10.643229166666668 11.766855702583491  10.5859375 11.860113421550095  C 10.528645833333334 11.953371140516698  10.440104166666668 12  10.3203125 12  C 10.231770833333334 12  10.127604166666668 11.969754253308128  10.0078125 11.909262759924387  L 6.5 10.12476370510397  L 2.9921875 11.909262759924387  C 2.8723958333333335 11.969754253308128  2.768229166666667 12  2.6796875 12  C 2.5598958333333335 12  2.471354166666667 11.953371140516698  2.4140625 11.860113421550095  C 2.3567708333333335 11.766855702583491  2.3411458333333335 11.637051039697543  2.3671875 11.47069943289225  L 3.0390625 7.689981096408317  L 0.1953125 5.013232514177694  C 0.028645833333333322 4.851921865154378  -0.03125 4.701953371140516  0.015625 4.563327032136106  C 0.0625 4.424700693131694  0.203125 4.337744171392565  0.4375 4.302457466918715  L 4.359375 3.75047258979206  L 6.1171875 0.3100189035916818  C 6.221354166666667 0.10333963453056016  6.348958333333334 0  6.5 0  C 6.645833333333334 0  6.7734375 0.10333963453056016  6.8828125 0.3100189035916818  L 8.640625 3.75047258979206  L 12.5625 4.302457466918715  C 12.796875000000002 4.337744171392565  12.937500000000002 4.424700693131694  12.984375 4.563327032136106  Z " fill-rule="nonzero" fill="#000000" stroke="none" transform="matrix(1 0 0 1 538 166 )" />
  </g>
</svg>