<?xml version="1.0" encoding="utf-8"?>
<svg version="1.1" xmlns:xlink="http://www.w3.org/1999/xlink" width="14px" height="12px" xmlns="http://www.w3.org/2000/svg">
  <g transform="matrix(1 0 0 1 -538 -232 )">
    <path d="M 10.171875 10.533081285444235  L 9.56610576923077 7.349716446124765  L 12.140625 5.103969754253308  L 8.59014423076923 4.6351606805293  L 7 1.746691871455576  L 5.409855769230769 4.6351606805293  L 1.859375 5.103969754253308  L 4.433894230769231 7.349716446124765  L 3.8197115384615383 10.533081285444235  L 7 9.028355387523629  L 10.171875 10.533081285444235  Z M 13.528846153846153 4.302457466918715  C 13.842948717948719 4.347826086956522  14 4.463768115942029  14 4.650283553875237  C 14 4.761184625078764  13.927083333333334 4.882167611846249  13.78125 5.013232514177694  L 10.727163461538462 7.689981096408317  L 11.450721153846153 11.47069943289225  C 11.45633012820513 11.5059861373661  11.459134615384617 11.556395715185884  11.459134615384617 11.621928166351607  C 11.459134615384617 11.873976055450534  11.344150641025642 12  11.114182692307692 12  C 11.00761217948718 12  10.895432692307692 11.969754253308128  10.77764423076923 11.909262759924387  L 7 10.12476370510397  L 3.222355769230769 11.909262759924387  C 3.0989583333333335 11.969754253308128  2.986778846153846 12  2.8858173076923075 12  C 2.768028846153846 12  2.6796875 11.963453056080656  2.620793269230769 11.890359168241964  C 2.5618990384615383 11.817265280403277  2.532451923076923 11.727788279773158  2.532451923076923 11.621928166351607  C 2.532451923076923 11.591682419659735  2.538060897435898 11.541272841839948  2.549278846153846 11.47069943289225  L 3.2728365384615383 7.689981096408317  L 0.21033653846153846 5.013232514177694  C 0.07011217948717949 4.877126654064272  0 4.7561436672967865  0 4.650283553875237  C 0 4.463768115942029  0.15705128205128202 4.347826086956522  0.47115384615384615 4.302457466918715  L 4.694711538461538 3.75047258979206  L 6.587740384615385 0.3100189035916818  C 6.694310897435898 0.10333963453056016  6.831730769230769 0  7 0  C 7.16826923076923 0  7.305689102564102 0.10333963453056016  7.412259615384616 0.3100189035916818  L 9.305288461538462 3.75047258979206  L 13.528846153846153 4.302457466918715  Z " fill-rule="nonzero" fill="#000000" stroke="none" transform="matrix(1 0 0 1 538 232 )" />
  </g>
</svg>