<?xml version="1.0" encoding="utf-8"?>
<svg version="1.1" xmlns:xlink="http://www.w3.org/1999/xlink" width="213px" height="39px" xmlns="http://www.w3.org/2000/svg">
  <g transform="matrix(1 0 0 1 -154 -82 )">
    <path d="M 157.04162570305607 95.1484363893065  C 157.04162570305607 89.26746736194924  161.8090930650053 84.5  167.69006209236255 84.5  C 167.69006209236255 84.5  353.85156361069136 84.5  353.85156361069136 84.5  C 359.7325326380486 84.5  364.49999999999784 89.26746736194924  364.49999999999784 95.1484363893065  C 364.49999999999784 101.02940541666374  359.7325326380486 105.796872778613  353.8515636106914 105.796872778613  C 353.8515636106914 105.796872778613  190.8194624035899 105.796872778613  190.8194624035899 105.796872778613  C 190.8194624035899 105.796872778613  170.9603299963477 115.42593213072371  170.9603299963477 115.42593213072371  C 170.9603299963477 115.42593213072371  176.03832590910264 105.796872778613  176.03832590910264 105.796872778613  C 176.03832590910264 105.796872778613  167.69006209236255 105.796872778613  167.69006209236255 105.796872778613  C 161.8090930650053 105.796872778613  157.04162570305607 101.02940541666375  157.04162570305607 95.1484363893065  Z " fill-rule="nonzero" fill="#ffffff" stroke="none" />
    <path d="M 154.54162570305607 95.1484363893065  C 154.54162570305607 87.88675548737226  160.42838119042833 82  167.69006209236255 82  C 167.69006209236255 82  353.85156361069136 82  353.85156361069136 82  C 361.1132445126256 82  366.99999999999784 87.88675548737226  366.99999999999784 95.1484363893065  C 366.99999999999784 102.41011729124071  361.11324451262556 108.296872778613  353.85156361069136 108.296872778613  C 353.85156361069136 108.296872778613  191.39358353510846 108.29687277861296  191.39358353510846 108.29687277861296  C 191.39358353510846 108.29687277861296  165.194442346902 121  165.194442346902 121  C 165.194442346902 121  171.89358353510846 108.29687277861296  171.89358353510846 108.29687277861296  C 171.89358353510846 108.29687277861296  167.69006209236255 108.296872778613  167.69006209236255 108.296872778613  C 160.42838119042833 108.296872778613  154.54162570305607 102.41011729124074  154.54162570305607 95.1484363893065  Z M 157.54162570305607 95.1484363893065  C 157.54162570305607 100.75326304174835  162.0852354399207 105.296872778613  167.69006209236255 105.296872778613  C 167.69006209236255 105.296872778613  176.86727438390147 105.296872778613  176.86727438390147 105.296872778613  C 176.86727438390147 105.296872778613  172.11350752623682 114.31111855686844  172.11350752623682 114.31111855686844  C 172.11350752623682 114.31111855686844  190.7046381772862 105.296872778613  190.7046381772862 105.296872778613  C 190.7046381772862 105.296872778613  353.85156361069136 105.296872778613  353.85156361069136 105.296872778613  C 359.45639026313324 105.296872778613  363.99999999999784 100.75326304174834  363.99999999999784 95.1484363893065  C 363.99999999999784 89.54360973686464  359.45639026313324 85  353.85156361069136 85  C 353.85156361069136 85  167.69006209236255 85  167.69006209236255 85  C 162.0852354399207 85  157.54162570305607 89.54360973686464  157.54162570305607 95.1484363893065  Z " fill-rule="nonzero" fill="#000000" stroke="none" />
  </g>
</svg>