<?xml version="1.0" encoding="utf-8"?>
<svg version="1.1" xmlns:xlink="http://www.w3.org/1999/xlink" width="398px" height="166px" xmlns="http://www.w3.org/2000/svg">
  <g transform="matrix(1 0 0 1 -197 -129 )">
    <path d="M 269.3365955695092 211.58567677381885  C 269.3365955695092 167.35557881176055  305.1921743812697 131.5  349.422272343328 131.5  C 349.422272343328 131.5  512.4143232261797 131.5  512.4143232261797 131.5  C 556.644421188238 131.5  592.4999999999986 167.35557881176055  592.4999999999986 211.58567677381885  C 592.4999999999986 255.8157747358772  556.6444211882381 291.6713535476377  512.4143232261797 291.6713535476377  C 512.4143232261797 291.6713535476377  349.422272343328 291.6713535476377  349.422272343328 291.6713535476377  C 328.10643074516713 291.6713535476377  307.67006124207745 283.1736198614302  292.63870446145745 268.0599367771654  C 292.63870446145745 268.0599367771654  220.47203610124348 217.67097860769468  220.47203610124348 217.67097860769468  C 220.47203610124348 217.67097860769468  275.4570939238682 242.2918326012431  275.4570939238682 242.2918326012431  C 271.4165043208001 232.5588353289558  269.3365955695092 222.12406375868397  269.3365955695092 211.58567677381885  Z " fill-rule="nonzero" fill="#ffffff" stroke="none" />
    <path d="M 266.8365955695092 211.58567677381885  C 266.8365955695092 165.97486693718355  303.8114625066927 129  349.422272343328 129  C 349.422272343328 129  512.4143232261797 129  512.4143232261797 129  C 558.025133062815 129  594.9999999999986 165.97486693718355  594.9999999999986 211.58567677381885  C 594.9999999999986 257.19648661045414  558.025133062815 294.1713535476377  512.4143232261797 294.1713535476377  C 512.4143232261797 294.1713535476377  349.422272343328 294.1713535476377  349.422272343328 294.1713535476377  C 327.51918903835264 294.1713535476377  306.51319900152237 285.4703875833085  291.02538026768036 269.98256884946653  C 291.02538026768036 269.98256884946653  197.36111111111163 204.58333333333232  197.36111111111163 204.58333333333232  C 197.36111111111163 204.58333333333232  271.0311658000721 237.57083452037824  271.0311658000721 237.57083452037824  C 268.25276842273195 229.18906339738356  266.8365955695092 220.41594172707354  266.8365955695092 211.58567677381885  Z M 269.8365955695092 211.58567677381885  C 269.8365955695092 222.4856845397044  272.0756394854666 233.26950721021376  276.4149077178911 243.26855318987788  C 276.4149077178911 243.26855318987788  225.09422109926987 220.2885076625672  225.09422109926987 220.2885076625672  C 225.09422109926987 220.2885076625672  292.9617115244448 267.6756493140507  292.9617115244448 267.6756493140507  C 307.9017045086026 282.7143513193101  328.22401891598935 291.1713535476377  349.422272343328 291.1713535476377  C 349.422272343328 291.1713535476377  512.4143232261797 291.1713535476377  512.4143232261797 291.1713535476377  C 556.3682788133226 291.1713535476377  591.9999999999986 255.5396323609618  591.9999999999986 211.58567677381885  C 591.9999999999986 167.63172118667592  556.3682788133226 132  512.4143232261797 132  C 512.4143232261797 132  349.422272343328 132  349.422272343328 132  C 305.4683167561851 132  269.8365955695092 167.63172118667592  269.8365955695092 211.58567677381885  Z " fill-rule="nonzero" fill="#000000" stroke="none" />
  </g>
</svg>