<?xml version="1.0" encoding="utf-8"?>
<svg version="1.1" xmlns:xlink="http://www.w3.org/1999/xlink" width="390px" height="150px" xmlns="http://www.w3.org/2000/svg">
  <g transform="matrix(1 0 0 1 -197 -145 )">
    <path d="M 267.93284490479545 219.6256115426074  C 267.93284490479545 179.7917362154055  300.2245811202009 147.5  340.0584564474028 147.5  C 340.0584564474028 147.5  512.3743884573912 147.5  512.3743884573912 147.5  C 552.2082637845931 147.5  584.4999999999986 179.79173621540548  584.4999999999986 219.6256115426074  C 584.4999999999986 259.4594868698093  552.2082637845931 291.7512230852148  512.3743884573912 291.7512230852148  C 512.3743884573912 291.7512230852148  340.0584564474028 291.7512230852148  340.0584564474028 291.7512230852148  C 320.8415903019931 291.7512230852148  302.41927164199876 284.0824463394723  288.87879595869606 270.44633755725437  C 288.87879595869606 270.44633755725437  220.68251598073329 225.63567384373852  220.68251598073329 225.63567384373852  C 220.68251598073329 225.63567384373852  273.5166190980534 247.45163753569216  273.5166190980534 247.45163753569216  C 269.8308409368192 238.63764264574334  267.93284490479545 229.17922167563432  267.93284490479545 219.6256115426074  Z " fill-rule="nonzero" fill="#ffffff" stroke="none" />
    <path d="M 265.43284490479545 219.6256115426074  C 265.43284490479545 178.41102434082853  298.8438692456239 145  340.0584564474028 145  C 340.0584564474028 145  512.3743884573912 145  512.3743884573912 145  C 553.58897565917 145  586.9999999999986 178.4110243408285  586.9999999999986 219.6256115426074  C 586.9999999999986 260.8401987443863  553.58897565917 294.2512230852148  512.3743884573912 294.2512230852148  C 512.3743884573912 294.2512230852148  340.0584564474028 294.2512230852148  340.0584564474028 294.2512230852148  C 320.26651370194315 294.2512230852148  301.2851974036025 286.38890444274864  287.29018047543207 272.3938875145782  C 287.29018047543207 272.3938875145782  197.35385259631542 213.29819277108342  197.35385259631542 213.29819277108342  C 197.35385259631542 213.29819277108342  269.17258911564994 242.9531855856422  269.17258911564994 242.9531855856422  C 266.6952427030093 235.42523395135413  265.43284490479545 227.55071728678544  265.43284490479545 219.62561154260737  Z M 268.43284490479545 219.6256115426074  C 268.43284490479545 229.5243569848269  270.4846408049965 239.31564879850959  274.45875379243046 248.3816064033614  C 274.45875379243046 248.3816064033614  225.34824865761684 228.1031700582695  225.34824865761684 228.1031700582695  C 225.34824865761684 228.1031700582695  289.1969703056677 270.057124075017  289.1969703056677 270.057124075017  C 302.64643571646974 283.6212581700562  320.9567849607354 291.2512230852148  340.0584564474028 291.2512230852148  C 340.0584564474028 291.2512230852148  512.3743884573912 291.2512230852148  512.3743884573912 291.2512230852148  C 551.9321214096777 291.2512230852148  583.9999999999986 259.18334449489396  583.9999999999986 219.6256115426074  C 583.9999999999986 180.06787859032087  551.9321214096777 148  512.3743884573912 148  C 512.3743884573912 148  340.0584564474028 148  340.0584564474028 148  C 300.5007234951163 148  268.43284490479545 180.0678785903209  268.43284490479545 219.6256115426074  Z " fill-rule="nonzero" fill="#000000" stroke="none" />
  </g>
</svg>