<?xml version="1.0" encoding="utf-8"?>
<svg version="1.1" xmlns:xlink="http://www.w3.org/1999/xlink" width="25px" height="25px" xmlns="http://www.w3.org/2000/svg">
  <defs>
    <filter x="-3px" y="-2px" width="25px" height="25px" filterUnits="userSpaceOnUse" id="filter149">
      <feOffset dx="0" dy="1" in="SourceAlpha" result="shadowOffsetInner" />
      <feGaussianBlur stdDeviation="1.5" in="shadowOffsetInner" result="shadowGaussian" />
      <feComposite in2="shadowGaussian" operator="atop" in="SourceAlpha" result="shadowComposite" />
      <feColorMatrix type="matrix" values="0 0 0 0 0  0 0 0 0 0  0 0 0 0 0  0 0 0 0.34901960784313724 0  " in="shadowComposite" />
    </filter>
    <g id="widget150">
      <path d="M 9.5 0  C 14.82 0  19 4.18  19 9.5  C 19 14.82  14.82 19  9.5 19  C 4.18 19  0 14.82  0 9.5  C 0 4.18  4.18 0  9.5 0  Z " fill-rule="nonzero" fill="#ffffff" stroke="none" />
      <path d="M 9.5 0.5  C 14.540000000000001 0.5  18.5 4.459999999999999  18.5 9.5  C 18.5 14.540000000000001  14.540000000000001 18.5  9.5 18.5  C 4.459999999999999 18.5  0.5 14.540000000000001  0.5 9.5  C 0.5 4.459999999999999  4.459999999999999 0.5  9.5 0.5  Z " stroke-width="1" stroke="#000000" fill="none" />
    </g>
  </defs>
  <g transform="matrix(1 0 0 1 3 2 )">
    <use xlink:href="#widget150" filter="url(#filter149)" />
    <use xlink:href="#widget150" />
  </g>
</svg>