<?xml version="1.0" encoding="utf-8"?>
<svg version="1.1" xmlns:xlink="http://www.w3.org/1999/xlink" width="25px" height="25px" xmlns="http://www.w3.org/2000/svg">
  <defs>
    <filter x="16px" y="-2px" width="25px" height="25px" filterUnits="userSpaceOnUse" id="filter147">
      <feOffset dx="0" dy="1" in="SourceAlpha" result="shadowOffsetInner" />
      <feGaussianBlur stdDeviation="1.5" in="shadowOffsetInner" result="shadowGaussian" />
      <feComposite in2="shadowGaussian" operator="atop" in="SourceAlpha" result="shadowComposite" />
      <feColorMatrix type="matrix" values="0 0 0 0 0  0 0 0 0 0  0 0 0 0 0  0 0 0 0.34901960784313724 0  " in="shadowComposite" />
    </filter>
    <g id="widget148">
      <path d="M 28.5 0  C 33.82 0  38 4.18  38 9.5  C 38 14.82  33.82 19  28.5 19  C 23.18 19  19 14.82  19 9.5  C 19 4.18  23.18 0  28.5 0  Z " fill-rule="nonzero" fill="#ffffff" stroke="none" />
      <path d="M 28.5 0.5  C 33.54 0.5  37.5 4.459999999999999  37.5 9.5  C 37.5 14.540000000000001  33.54 18.5  28.5 18.5  C 23.46 18.5  19.5 14.540000000000001  19.5 9.5  C 19.5 4.459999999999999  23.46 0.5  28.5 0.5  Z " stroke-width="1" stroke="#333333" fill="none" />
    </g>
  </defs>
  <g transform="matrix(1 0 0 1 -16 2 )">
    <use xlink:href="#widget148" filter="url(#filter147)" />
    <use xlink:href="#widget148" />
  </g>
</svg>