<?xml version="1.0" encoding="utf-8"?>
<svg version="1.1" xmlns:xlink="http://www.w3.org/1999/xlink" width="119px" height="68px" xmlns="http://www.w3.org/2000/svg">
  <g transform="matrix(1 0 0 1 -292 -114 )">
    <path d="M 294.80259839748203 138.77834464671355  C 294.80259839748203 126.47435464685915  304.77695304434116 116.5  317.0809430441956 116.5  C 317.0809430441956 116.5  386.2216553532853 116.5  386.2216553532853 116.5  C 398.5256453531397 116.5  408.49999999999886 126.47435464685915  408.49999999999886 138.77834464671355  C 408.49999999999886 151.08233464656792  398.5256453531397 161.05668929342707  386.2216553532853 161.05668929342707  C 386.2216553532853 161.05668929342707  338.322300248918 161.05668929342707  338.322300248918 161.05668929342707  C 338.322300248918 161.05668929342707  341.9633626775454 175.49352832923222  341.9633626775454 175.49352832923222  C 341.9633626775454 175.49352832923222  322.3520579071964 161.05668929342707  322.3520579071964 161.05668929342707  C 322.3520579071964 161.05668929342707  317.0809430441956 161.05668929342707  317.0809430441956 161.05668929342707  C 304.77695304434116 161.05668929342707  294.80259839748203 151.08233464656792  294.80259839748203 138.77834464671355  Z " fill-rule="nonzero" fill="#ffffff" stroke="none" />
    <path d="M 292.30259839748203 138.77834464671355  C 292.30259839748203 125.09364277228217  303.3962411697642 114  317.0809430441956 114  C 317.0809430441956 114  386.2216553532853 114  386.2216553532853 114  C 399.9063572277167 114  410.99999999999886 125.09364277228217  410.99999999999886 138.77834464671355  C 410.99999999999886 152.46304652114492  399.9063572277167 163.55668929342707  386.2216553532853 163.55668929342707  C 386.2216553532853 163.55668929342707  341.5311004784677 163.55668929342707  341.5311004784677 163.55668929342707  C 341.5311004784677 163.55668929342707  346.0909090909084 181.63636363636363  346.0909090909084 181.63636363636363  C 346.0909090909084 181.63636363636363  321.5311004784677 163.55668929342707  321.5311004784677 163.55668929342707  C 321.5311004784677 163.55668929342707  317.0809430441956 163.55668929342707  317.0809430441956 163.55668929342707  C 303.3962411697642 163.55668929342707  292.30259839748203 152.46304652114492  292.30259839748203 138.77834464671355  Z M 295.30259839748203 138.77834464671355  C 295.30259839748203 150.80619227165252  305.0530954192566 160.55668929342707  317.0809430441956 160.55668929342707  C 317.0809430441956 160.55668929342707  322.51624939294214 160.55668929342707  322.51624939294214 160.55668929342707  C 322.51624939294214 160.55668929342707  341.13785339487276 174.26496126780594  341.13785339487276 174.26496126780594  C 341.13785339487276 174.26496126780594  337.68054020300804 160.55668929342707  337.68054020300804 160.55668929342707  C 337.68054020300804 160.55668929342707  386.2216553532853 160.55668929342707  386.2216553532853 160.55668929342707  C 398.2495029782243 160.55668929342707  407.99999999999886 150.80619227165252  407.99999999999886 138.77834464671355  C 407.99999999999886 126.75049702177455  398.2495029782243 117  386.2216553532853 117  C 386.2216553532853 117  317.0809430441956 117  317.0809430441956 117  C 305.0530954192566 117  295.30259839748203 126.75049702177455  295.30259839748203 138.77834464671355  Z " fill-rule="nonzero" fill="#000000" stroke="none" />
  </g>
</svg>