<?xml version="1.0" encoding="utf-8"?>
<svg version="1.1" xmlns:xlink="http://www.w3.org/1999/xlink" width="124px" height="92px" xmlns="http://www.w3.org/2000/svg">
  <g transform="matrix(1 0 0 1 -289 -99 )">
    <path d="M 292.3153126158636 132.15925533604315  C 292.3153126158636 115.50275854769353  305.81807116355714 102  322.47456795190675 102  C 322.47456795190675 102  379.84074466395566 102  379.84074466395566 102  C 396.4972414523053 102  409.9999999999988 115.50275854769353  409.9999999999988 132.15925533604315  C 409.9999999999988 148.81575212439273  396.4972414523053 162.31851067208626  379.84074466395566 162.31851067208626  C 379.84074466395566 162.31851067208626  336.1592087292116 162.31851067208626  336.1592087292116 162.31851067208626  C 336.1592087292116 162.31851067208626  343.741008624023 181.02411004575424  343.741008624023 181.02411004575424  C 343.741008624023 181.02411004575424  320.78335158917577 162.27105484452613  320.78335158917577 162.27105484452613  C 304.80906355893364 161.37386577775806  292.3153126158636 148.15871864875035  292.3153126158636 132.15925533604315  Z " fill-rule="nonzero" fill="#f0c9c9" stroke="none" fill-opacity="0.996078431372549" />
    <path d="M 289.3153126158636 132.15925533604315  C 289.3153126158636 113.84590429820115  304.16121691406477 99  322.47456795190675 99  C 322.47456795190675 99  379.84074466395566 99  379.84074466395566 99  C 398.15409570179764 99  412.9999999999988 113.84590429820115  412.9999999999988 132.15925533604315  C 412.9999999999988 150.47260637388513  398.15409570179764 165.31851067208626  379.84074466395566 165.31851067208626  C 379.84074466395566 165.31851067208626  340.61223915403355 165.31851067208623  340.61223915403355 165.31851067208623  C 340.61223915403355 165.31851067208623  350.92753623188355 190.7681159420274  350.92753623188355 190.7681159420274  C 350.92753623188355 190.7681159420274  319.62134716962316 165.19552851581403  319.62134716962316 165.19552851581403  C 302.4777516993767 163.714899553443  289.3153126158636 149.36667024275314  289.3153126158636 132.15925533604315  Z M 292.3153126158636 132.15925533604315  C 292.3153126158636 148.15871864875035  304.80906355893364 161.37386577775806  320.78335158917577 162.27105484452613  C 320.78335158917577 162.27105484452613  343.741008624023 181.02411004575424  343.741008624023 181.02411004575424  C 343.741008624023 181.02411004575424  336.1592087292116 162.31851067208626  336.1592087292116 162.31851067208626  C 336.1592087292116 162.31851067208626  379.84074466395566 162.31851067208626  379.84074466395566 162.31851067208626  C 396.4972414523053 162.31851067208626  409.9999999999988 148.81575212439273  409.9999999999988 132.15925533604315  C 409.9999999999988 115.50275854769353  396.4972414523053 102  379.84074466395566 102  C 379.84074466395566 102  322.47456795190675 102  322.47456795190675 102  C 305.81807116355714 102  292.3153126158636 115.50275854769353  292.3153126158636 132.15925533604315  Z " fill-rule="nonzero" fill="#c32020" stroke="none" fill-opacity="0.996078431372549" />
  </g>
</svg>