<?xml version="1.0" encoding="utf-8"?>
<svg version="1.1" xmlns:xlink="http://www.w3.org/1999/xlink" width="18px" height="18px" viewBox="403 245  18 18" xmlns="http://www.w3.org/2000/svg">
  <path d="M 412 246  C 416.48 246  420 249.52  420 254  C 420 258.48  416.48 262  412 262  C 407.52 262  404 258.48  404 254  C 404 249.52  407.52 246  412 246  Z " fill-rule="nonzero" fill="#6200ee" stroke="none" fill-opacity="0" />
  <path d="M 412 246  C 416.48 246  420 249.52  420 254  C 420 258.48  416.48 262  412 262  C 407.52 262  404 258.48  404 254  C 404 249.52  407.52 246  412 246  Z " stroke-width="2" stroke="#1e98d7" fill="none" />
  <path d="M 412 258.5  C 409.48 258.5  407.5 256.52  407.5 254  C 407.5 251.48  409.48 249.5  412 249.5  C 414.52 249.5  416.5 251.48  416.5 254  C 416.5 256.52  414.52 258.5  412 258.5  " fill-rule="nonzero" fill="#1e98d7" stroke="none" />
</svg>