<?xml version="1.0" encoding="utf-8"?>
<svg version="1.1" xmlns:xlink="http://www.w3.org/1999/xlink" width="18px" height="18px" viewBox="403 134  18 18" xmlns="http://www.w3.org/2000/svg">
  <path d="M 412 135  C 416.48 135  420 138.52  420 143  C 420 147.48  416.48 151  412 151  C 407.52 151  404 147.48  404 143  C 404 138.52  407.52 135  412 135  Z " fill-rule="nonzero" fill="#6200ee" stroke="none" fill-opacity="0" />
  <path d="M 412 135  C 416.48 135  420 138.52  420 143  C 420 147.48  416.48 151  412 151  C 407.52 151  404 147.48  404 143  C 404 138.52  407.52 135  412 135  Z " stroke-width="2" stroke="#1e98d7" fill="none" />
  <path d="M 412 147.5  C 409.48 147.5  407.5 145.52  407.5 143  C 407.5 140.48  409.48 138.5  412 138.5  C 414.52 138.5  416.5 140.48  416.5 143  C 416.5 145.52  414.52 147.5  412 147.5  " fill-rule="nonzero" fill="#1e98d7" stroke="none" />
</svg>