<?xml version="1.0" encoding="utf-8"?>
<svg version="1.1" xmlns:xlink="http://www.w3.org/1999/xlink" width="18px" height="18px" viewBox="403 158  18 18" xmlns="http://www.w3.org/2000/svg">
  <path d="M 412 159  C 416.48 159  420 162.52  420 167  C 420 171.48  416.48 175  412 175  C 407.52 175  404 171.48  404 167  C 404 162.52  407.52 159  412 159  Z " fill-rule="nonzero" fill="#6200ee" stroke="none" fill-opacity="0" />
  <path d="M 412 159  C 416.48 159  420 162.52  420 167  C 420 171.48  416.48 175  412 175  C 407.52 175  404 171.48  404 167  C 404 162.52  407.52 159  412 159  Z " stroke-width="2" stroke="#1e98d7" fill="none" />
  <path d="M 412 171.5  C 409.48 171.5  407.5 169.52  407.5 167  C 407.5 164.48  409.48 162.5  412 162.5  C 414.52 162.5  416.5 164.48  416.5 167  C 416.5 169.52  414.52 171.5  412 171.5  " fill-rule="nonzero" fill="#1e98d7" stroke="none" />
</svg>