<?xml version="1.0" encoding="utf-8"?>
<svg version="1.1" xmlns:xlink="http://www.w3.org/1999/xlink" width="18px" height="18px" viewBox="403 183  18 18" xmlns="http://www.w3.org/2000/svg">
  <path d="M 412 184  C 416.48 184  420 187.52  420 192  C 420 196.48  416.48 200  412 200  C 407.52 200  404 196.48  404 192  C 404 187.52  407.52 184  412 184  Z " fill-rule="nonzero" fill="#6200ee" stroke="none" fill-opacity="0" />
  <path d="M 412 184  C 416.48 184  420 187.52  420 192  C 420 196.48  416.48 200  412 200  C 407.52 200  404 196.48  404 192  C 404 187.52  407.52 184  412 184  Z " stroke-width="2" stroke="#1e98d7" fill="none" />
  <path d="M 412 196.5  C 409.48 196.5  407.5 194.52  407.5 192  C 407.5 189.48  409.48 187.5  412 187.5  C 414.52 187.5  416.5 189.48  416.5 192  C 416.5 194.52  414.52 196.5  412 196.5  " fill-rule="nonzero" fill="#1e98d7" stroke="none" />
</svg>