<?xml version="1.0" encoding="utf-8"?>
<svg version="1.1" xmlns:xlink="http://www.w3.org/1999/xlink" width="18px" height="18px" viewBox="403 209  18 18" xmlns="http://www.w3.org/2000/svg">
  <path d="M 412 210  C 416.48 210  420 213.52  420 218  C 420 222.48  416.48 226  412 226  C 407.52 226  404 222.48  404 218  C 404 213.52  407.52 210  412 210  Z " fill-rule="nonzero" fill="#6200ee" stroke="none" fill-opacity="0" />
  <path d="M 412 210  C 416.48 210  420 213.52  420 218  C 420 222.48  416.48 226  412 226  C 407.52 226  404 222.48  404 218  C 404 213.52  407.52 210  412 210  Z " stroke-width="2" stroke="#1e98d7" fill="none" />
  <path d="M 412 222.5  C 409.48 222.5  407.5 220.52  407.5 218  C 407.5 215.48  409.48 213.5  412 213.5  C 414.52 213.5  416.5 215.48  416.5 218  C 416.5 220.52  414.52 222.5  412 222.5  " fill-rule="nonzero" fill="#1e98d7" stroke="none" />
</svg>