<?xml version="1.0" encoding="utf-8"?>
<svg version="1.1" xmlns:xlink="http://www.w3.org/1999/xlink" width="18px" height="18px" viewBox="403 235  18 18" xmlns="http://www.w3.org/2000/svg">
  <path d="M 412 236  C 416.48 236  420 239.52  420 244  C 420 248.48  416.48 252  412 252  C 407.52 252  404 248.48  404 244  C 404 239.52  407.52 236  412 236  Z " fill-rule="nonzero" fill="#6200ee" stroke="none" fill-opacity="0" />
  <path d="M 412 236  C 416.48 236  420 239.52  420 244  C 420 248.48  416.48 252  412 252  C 407.52 252  404 248.48  404 244  C 404 239.52  407.52 236  412 236  Z " stroke-width="2" stroke="#1e98d7" fill="none" />
  <path d="M 412 248.5  C 409.48 248.5  407.5 246.52  407.5 244  C 407.5 241.48  409.48 239.5  412 239.5  C 414.52 239.5  416.5 241.48  416.5 244  C 416.5 246.52  414.52 248.5  412 248.5  " fill-rule="nonzero" fill="#1e98d7" stroke="none" />
</svg>