<?xml version="1.0" encoding="utf-8"?>
<svg version="1.1" xmlns:xlink="http://www.w3.org/1999/xlink" width="16px" height="17px" xmlns="http://www.w3.org/2000/svg">
  <g transform="matrix(1 0 0 1 -520 -133 )">
    <path d="M 2.7036303630363037 15.563696369636963  L 3.8336633663366335 15.563696369636963  L 4.794719471947195 14.542574257425743  L 2.3128712871287127 11.905610561056106  L 1.3518151815181518 12.926732673267328  L 1.3518151815181518 14.127392739273928  L 2.7036303630363037 14.127392739273928  L 2.7036303630363037 15.563696369636963  Z M 9.283168316831683 5.341254125412541  C 9.332453245324533 5.288888888888889  9.357095709570958 5.225302530253025  9.357095709570958 5.1504950495049515  C 9.357095709570958 4.9859185918591855  9.27964796479648 4.903630363036303  9.124752475247524 4.903630363036303  C 9.054345434543455 4.903630363036303  8.994499449944996 4.929812981298129  8.945214521452145 4.982178217821783  L 3.221122112211221 11.064026402640264  C 3.171837183718372 11.116391639163915  3.147194719471947 11.179977997799778  3.147194719471947 11.254785478547856  C 3.147194719471947 11.419361936193617  3.224642464246425 11.501650165016503  3.3795379537953796 11.501650165016503  C 3.4499449944994502 11.501650165016503  3.50979097909791 11.475467546754675  3.559075907590759 11.423102310231023  L 9.283168316831683 5.341254125412541  Z M 0 12.332013201320134  L 8.786798679867987 2.996039603960397  L 13.18019801980198 7.664026402640264  L 4.3933993399339935 17  L 0 17  L 0 12.332013201320134  Z M 15.60924092409241 3.0521452145214516  C 15.86974697469747 3.3438943894389443  16 3.684268426842684  16 4.073267326732673  C 16 4.46974697469747  15.86974697469747 4.806380638063805  15.60924092409241 5.083168316831684  L 13.856105610561055 6.9458745874587455  L 9.462706270627063 2.2778877887788784  L 11.215841584158415 0.4264026402640255  C 11.469306930693069 0.14213421342134058  11.786138613861386 0  12.166336633663366 0  C 12.539493949394942 0  12.859845984598461 0.14213421342134058  13.127392739273928 0.4264026402640255  L 15.60924092409241 3.0521452145214516  Z " fill-rule="nonzero" fill="#000000" stroke="none" transform="matrix(1 0 0 1 520 133 )" />
  </g>
</svg>