<?xml version="1.0" encoding="utf-8"?>
<svg version="1.1" xmlns:xlink="http://www.w3.org/1999/xlink" width="16px" height="17px" xmlns="http://www.w3.org/2000/svg">
  <g transform="matrix(1 0 0 1 -549 -133 )">
    <path d="M 15.622895622895623 12.707070707070706  C 15.874298540965208 12.974186307519638  16 13.29854096520763  16 13.68013468013468  C 16 14.061728395061731  15.874298540965208 14.386083052749719  15.622895622895623 14.653198653198652  L 13.79124579124579 16.5993265993266  C 13.539842873176209 16.866442199775534  13.234567901234568 17  12.875420875420875 17  C 12.516273849607185 17  12.210998877665546 16.866442199775534  11.95959595959596 16.5993265993266  L 8 12.392255892255893  L 4.040404040404041 16.5993265993266  C 3.789001122334456 16.866442199775534  3.483726150392817 17  3.1245791245791246 17  C 2.7654320987654324 17  2.460157126823794 16.866442199775534  2.208754208754209 16.5993265993266  L 0.3771043771043771 14.653198653198652  C 0.1257014590347925 14.386083052749719  0 14.061728395061731  0 13.68013468013468  C 0 13.29854096520763  0.1257014590347925 12.974186307519638  0.3771043771043771 12.707070707070706  L 4.3367003367003365 8.5  L 0.3771043771043771 4.292929292929292  C 0.1257014590347925 4.025813692480358  0 3.7014590347923684  0 3.31986531986532  C 0 2.9382716049382713  0.1257014590347925 2.613916947250278  0.3771043771043771 2.3468013468013473  L 2.208754208754209 0.40067340067340074  C 2.460157126823794 0.13355780022446628  2.7654320987654324 0  3.1245791245791246 0  C 3.483726150392817 0  3.789001122334456 0.13355780022446628  4.040404040404041 0.40067340067340074  L 8 4.607744107744108  L 11.95959595959596 0.40067340067340074  C 12.210998877665546 0.13355780022446628  12.516273849607185 0  12.875420875420875 0  C 13.234567901234568 0  13.539842873176209 0.13355780022446628  13.79124579124579 0.40067340067340074  L 15.622895622895623 2.3468013468013473  C 15.874298540965208 2.613916947250278  16 2.9382716049382713  16 3.31986531986532  C 16 3.7014590347923684  15.874298540965208 4.025813692480358  15.622895622895623 4.292929292929292  L 11.663299663299663 8.5  L 15.622895622895623 12.707070707070706  Z " fill-rule="nonzero" fill="#000000" stroke="none" transform="matrix(1 0 0 1 549 133 )" />
  </g>
</svg>