<?xml version="1.0" encoding="utf-8"?>
<svg version="1.1" xmlns:xlink="http://www.w3.org/1999/xlink" width="70px" height="67px" xmlns="http://www.w3.org/2000/svg">
  <g transform="matrix(1 0 0 1 -500 -147 )">
    <path d="M 65.30598958333334 16.6845703125  C 68.4353298611111 21.817165798611104  70 27.422309027777768  70 33.5  C 70 39.57769097222222  68.4353298611111 45.18283420138888  65.30598958333334 50.3154296875  C 62.176649305555564 55.448025173611114  57.93077256944444 59.511935763888886  52.568359375 62.507161458333336  C 47.205946180555564 65.50238715277779  41.34982638888889 67  35 67  C 28.650173611111114 67  22.794053819444446 65.50238715277779  17.431640625 62.507161458333336  C 12.069227430555557 59.511935763888886  7.8233506944444455 55.448025173611114  4.694010416666667 50.3154296875  C 1.5646701388888886 45.18283420138888  0 39.57769097222222  0 33.5  C 0 27.422309027777768  1.5646701388888886 21.817165798611104  4.694010416666667 16.6845703125  C 7.8233506944444455 11.551974826388888  12.069227430555557 7.4880642361111045  17.431640625 4.492838541666664  C 22.794053819444446 1.4976128472222165  28.650173611111114 0  35 0  C 41.34982638888889 0  47.205946180555564 1.4976128472222165  52.568359375 4.492838541666664  C 57.93077256944444 7.4880642361111045  62.176649305555564 11.551974826388888  65.30598958333334 16.6845703125  Z " fill-rule="nonzero" fill="#c0c0c0" stroke="none" transform="matrix(1 0 0 1 500 147 )" />
  </g>
</svg>