<?xml version="1.0" encoding="utf-8"?>
<svg version="1.1" xmlns:xlink="http://www.w3.org/1999/xlink" width="25px" height="24px" xmlns="http://www.w3.org/2000/svg">
  <g transform="matrix(1 0 0 1 -467 -84 )">
    <path d="M 3.6322544247787607 15.376458053097346  C 2.3242347345132743 12.212988318584074  2.967901769911505 8.72721132743363  5.106936061946903 6.217960353982303  L 5.086246911504425 7.620406513274338  L 8.02757722123894 7.679992396460179  L 8.139070650442479 1.4578522194690278  L 1.6588516238938051 1.3519230159292044  L 1.597933504424779 4.175600113274337  L 3.0289487699115045 4.1943586215929205  C 0.0670505398230082 7.495960037522126  -0.8548277787610623 12.180008179115045  0.8967998761061946 16.41915366584071  C 2.8140007610619473 21.06026517026549  7.442636159292036 23.979956497699114  12.467799876106193 23.979956497699114  C 13.316057398230088 23.979956497699114  14.175820008849557 23.896094465840708  15.035582619469023 23.725065410973453  L 14.434434389380533 20.959861233982302  C 9.88860031858407 21.869101021592922  5.344825982300884 19.522105340176992  3.6323038584070786 15.376403534867258  Z M 24.10189601769912 7.579503716814159  C 21.860551769911506 2.1573408849557523  15.91474557522124 -0.9146060176991153  9.965349557522126 0.2749083185840703  L 10.565350221238939 3.04011249557522  C 15.111184292035398 2.130872707964601  19.654958628318585 4.47786838938053  21.36748075221239 8.621310371681414  C 22.676648008849558 11.787039929203537  22.031833407079645 15.276206654867252  19.89050398230089 17.785175150442477  L 19.90889446902655 16.370582442477872  L 16.966416592920357 16.31761784070796  L 16.866419424778766 22.53862810619469  L 23.346638451327436 22.634625387610615  L 23.40180991150443 19.810948290265483  L 21.981152168141595 19.793293423008848  C 24.935105707964603 16.49395183008849  25.85345305309734 11.815553246017693  24.101795973451328 7.5795150159292  Z " fill-rule="nonzero" fill="#000000" stroke="none" transform="matrix(1 0 0 1 467 84 )" />
  </g>
</svg>