<?xml version="1.0" encoding="utf-8"?>
<svg version="1.1" xmlns:xlink="http://www.w3.org/1999/xlink" width="303px" height="141px" xmlns="http://www.w3.org/2000/svg">
  <g transform="matrix(1 0 0 1 -215 -138 )">
    <path d="M 255.7911978646745 208.45522607344543  C 255.7911978646745 206.764068403786  255.85479591495627 205.0735088660465  255.98185719761096 203.38713118174854  C 255.98185719761096 203.38713118174854  226.5255336008807 197.07838543089628  226.5255336008807 197.07838543089628  C 226.5255336008807 197.07838543089628  259.8192037497314 185.49449298860446  259.8192037497314 185.49449298860446  C 269.486499941043 158.78934721268334  294.84534250512263 141  323.24642393811996 141  C 323.24642393811996 141  447.54477392655156 141  447.54477392655156 141  C 484.79926658330396 141  514.999999999997 171.20073341669303  514.999999999997 208.45522607344543  C 514.999999999997 245.70971873019784  484.79926658330396 275.91045214689086  447.54477392655156 275.91045214689086  C 447.54477392655156 275.91045214689086  323.24642393811996 275.91045214689086  323.24642393811996 275.91045214689086  C 285.99193128136756 275.91045214689086  255.7911978646745 245.70971873019786  255.7911978646745 208.45522607344543  Z " fill-rule="nonzero" fill="#ffffff" stroke="none" fill-opacity="0.996078431372549" />
    <path d="M 252.7911978646745 208.45522607344543  C 252.7911978646745 207.56413424604074  252.8081031678584 206.67312260537312  252.84190464913758 205.78267209875818  C 252.84190464913758 205.78267209875818  215.41649484535856 197.7671641791037  215.41649484535856 197.7671641791037  C 215.41649484535856 197.7671641791037  257.5023961875028 183.12418392776206  257.5023961875028 183.12418392776206  C 267.97816268624405 155.93544532627536  294.1093480643106 138  323.24642393811996 138  C 323.24642393811996 138  447.54477392655156 138  447.54477392655156 138  C 486.4561208327964 138  517.999999999997 169.54387916720063  517.999999999997 208.45522607344543  C 517.999999999997 247.36657297969023  486.45612083279633 278.91045214689086  447.54477392655156 278.91045214689086  C 447.54477392655156 278.91045214689086  323.24642393811996 278.91045214689086  323.24642393811996 278.91045214689086  C 284.33507703187513 278.91045214689086  252.7911978646745 247.36657297969026  252.7911978646745 208.45522607344543  Z M 255.7911978646745 208.45522607344543  C 255.7911978646745 245.70971873019786  285.99193128136756 275.91045214689086  323.24642393811996 275.91045214689086  C 323.24642393811996 275.91045214689086  447.54477392655156 275.91045214689086  447.54477392655156 275.91045214689086  C 484.79926658330396 275.91045214689086  514.999999999997 245.70971873019784  514.999999999997 208.45522607344543  C 514.999999999997 171.20073341669303  484.79926658330396 141  447.54477392655156 141  C 447.54477392655156 141  323.24642393811996 141  323.24642393811996 141  C 294.84534250512263 141  269.486499941043 158.78934721268334  259.8192037497314 185.49449298860446  C 259.8192037497314 185.49449298860446  226.5255336008807 197.07838543089628  226.5255336008807 197.07838543089628  C 226.5255336008807 197.07838543089628  255.98185719761096 203.38713118174854  255.98185719761096 203.38713118174854  C 255.85479591495627 205.0735088660465  255.7911978646745 206.764068403786  255.7911978646745 208.45522607344543  Z " fill-rule="nonzero" fill="#000000" stroke="none" fill-opacity="0.996078431372549" />
  </g>
</svg>