<?xml version="1.0" encoding="utf-8"?>
<svg version="1.1" xmlns:xlink="http://www.w3.org/1999/xlink" width="34px" height="32px" xmlns="http://www.w3.org/2000/svg">
  <defs>
    <mask fill="white" id="clip145">
      <path d="M 32.99441964285714 14.46  C 33.66480654761905 16.246666666666663  34 18.466666666666665  34 21.119999999999997  C 34 23.33333333333333  33.196800595238095 26.34  31.590401785714285 30.14  C 31.55245535714286 30.233333333333334  31.48604910714286 30.393333333333334  31.391183035714285 30.62  C 31.29631696428572 30.846666666666664  31.210937500000004 31.046666666666667  31.135044642857142 31.22  C 31.059151785714292 31.393333333333334  30.97693452380953 31.54  30.888392857142858 31.66  C 30.736607142857142 31.886666666666667  30.55952380952381 32  30.357142857142858 32  C 30.167410714285715 32  30.018787202380956 31.933333333333334  29.911272321428573 31.8  C 29.803757440476193 31.666666666666664  29.75 31.5  29.75 31.3  C 29.75 31.18  29.765811011904766 31.003333333333334  29.797433035714285 30.77  C 29.82905505952381 30.536666666666665  29.844866071428573 30.38  29.844866071428573 30.3  C 29.90811011904762 29.393333333333334  29.93973214285715 28.573333333333334  29.939732142857142 27.84  C 29.93973214285715 26.493333333333336  29.829055059523814 25.286666666666665  29.607700892857142 24.22  C 29.386346726190478 23.15333333333333  29.079613095238095 22.23  28.6875 21.45  C 28.29538690476191 20.67  27.789434523809526 19.996666666666663  27.169642857142858 19.43  C 26.549851190476193 18.863333333333333  25.882626488095237 18.4  25.16796875 18.04  C 24.453311011904766 17.68  23.612165178571427 17.396666666666665  22.64453125 17.189999999999998  C 21.676897321428573 16.983333333333334  20.702938988095237 16.84  19.72265625 16.759999999999998  C 18.742373511904763 16.68  17.632440476190474 16.64  16.392857142857142 16.64  L 12.142857142857142 16.64  L 12.142857142857142 21.759999999999998  C 12.142857142857142 22.106666666666666  12.022693452380954 22.406666666666666  11.782366071428571 22.66  C 11.542038690476192 22.91333333333333  11.257440476190478 23.04  10.928571428571429 23.04  C 10.599702380952383 23.04  10.315104166666668 22.91333333333333  10.074776785714286 22.66  L 0.36049107142857145 12.420000000000002  C 0.12016369047619048 12.166666666666664  0 11.866666666666664  0 11.52  C 0 11.173333333333332  0.12016369047619048 10.873333333333331  0.36049107142857145 10.620000000000001  L 10.074776785714286 0.379999999999999  C 10.315104166666668 0.12666666666666515  10.599702380952383 0  10.928571428571429 0  C 11.257440476190478 0  11.542038690476192 0.12666666666666515  11.782366071428571 0.379999999999999  C 12.022693452380954 0.6333333333333293  12.142857142857142 0.93333333333333  12.142857142857142 1.2800000000000011  L 12.142857142857142 6.399999999999999  L 16.392857142857142 6.399999999999999  C 25.411458333333336 6.399999999999999  30.9453125 9.086666666666666  32.99441964285714 14.46  Z " fill-rule="evenodd" />
    </mask>
  </defs>
  <g transform="matrix(1 0 0 1 -123 -86 )">
    <path d="M 32.99441964285714 14.46  C 33.66480654761905 16.246666666666663  34 18.466666666666665  34 21.119999999999997  C 34 23.33333333333333  33.196800595238095 26.34  31.590401785714285 30.14  C 31.55245535714286 30.233333333333334  31.48604910714286 30.393333333333334  31.391183035714285 30.62  C 31.29631696428572 30.846666666666664  31.210937500000004 31.046666666666667  31.135044642857142 31.22  C 31.059151785714292 31.393333333333334  30.97693452380953 31.54  30.888392857142858 31.66  C 30.736607142857142 31.886666666666667  30.55952380952381 32  30.357142857142858 32  C 30.167410714285715 32  30.018787202380956 31.933333333333334  29.911272321428573 31.8  C 29.803757440476193 31.666666666666664  29.75 31.5  29.75 31.3  C 29.75 31.18  29.765811011904766 31.003333333333334  29.797433035714285 30.77  C 29.82905505952381 30.536666666666665  29.844866071428573 30.38  29.844866071428573 30.3  C 29.90811011904762 29.393333333333334  29.93973214285715 28.573333333333334  29.939732142857142 27.84  C 29.93973214285715 26.493333333333336  29.829055059523814 25.286666666666665  29.607700892857142 24.22  C 29.386346726190478 23.15333333333333  29.079613095238095 22.23  28.6875 21.45  C 28.29538690476191 20.67  27.789434523809526 19.996666666666663  27.169642857142858 19.43  C 26.549851190476193 18.863333333333333  25.882626488095237 18.4  25.16796875 18.04  C 24.453311011904766 17.68  23.612165178571427 17.396666666666665  22.64453125 17.189999999999998  C 21.676897321428573 16.983333333333334  20.702938988095237 16.84  19.72265625 16.759999999999998  C 18.742373511904763 16.68  17.632440476190474 16.64  16.392857142857142 16.64  L 12.142857142857142 16.64  L 12.142857142857142 21.759999999999998  C 12.142857142857142 22.106666666666666  12.022693452380954 22.406666666666666  11.782366071428571 22.66  C 11.542038690476192 22.91333333333333  11.257440476190478 23.04  10.928571428571429 23.04  C 10.599702380952383 23.04  10.315104166666668 22.91333333333333  10.074776785714286 22.66  L 0.36049107142857145 12.420000000000002  C 0.12016369047619048 12.166666666666664  0 11.866666666666664  0 11.52  C 0 11.173333333333332  0.12016369047619048 10.873333333333331  0.36049107142857145 10.620000000000001  L 10.074776785714286 0.379999999999999  C 10.315104166666668 0.12666666666666515  10.599702380952383 0  10.928571428571429 0  C 11.257440476190478 0  11.542038690476192 0.12666666666666515  11.782366071428571 0.379999999999999  C 12.022693452380954 0.6333333333333293  12.142857142857142 0.93333333333333  12.142857142857142 1.2800000000000011  L 12.142857142857142 6.399999999999999  L 16.392857142857142 6.399999999999999  C 25.411458333333336 6.399999999999999  30.9453125 9.086666666666666  32.99441964285714 14.46  Z " fill-rule="nonzero" fill="#fffefe" stroke="none" fill-opacity="0.7019607843137254" transform="matrix(1 0 0 1 123 86 )" />
    <path d="M 32.99441964285714 14.46  C 33.66480654761905 16.246666666666663  34 18.466666666666665  34 21.119999999999997  C 34 23.33333333333333  33.196800595238095 26.34  31.590401785714285 30.14  C 31.55245535714286 30.233333333333334  31.48604910714286 30.393333333333334  31.391183035714285 30.62  C 31.29631696428572 30.846666666666664  31.210937500000004 31.046666666666667  31.135044642857142 31.22  C 31.059151785714292 31.393333333333334  30.97693452380953 31.54  30.888392857142858 31.66  C 30.736607142857142 31.886666666666667  30.55952380952381 32  30.357142857142858 32  C 30.167410714285715 32  30.018787202380956 31.933333333333334  29.911272321428573 31.8  C 29.803757440476193 31.666666666666664  29.75 31.5  29.75 31.3  C 29.75 31.18  29.765811011904766 31.003333333333334  29.797433035714285 30.77  C 29.82905505952381 30.536666666666665  29.844866071428573 30.38  29.844866071428573 30.3  C 29.90811011904762 29.393333333333334  29.93973214285715 28.573333333333334  29.939732142857142 27.84  C 29.93973214285715 26.493333333333336  29.829055059523814 25.286666666666665  29.607700892857142 24.22  C 29.386346726190478 23.15333333333333  29.079613095238095 22.23  28.6875 21.45  C 28.29538690476191 20.67  27.789434523809526 19.996666666666663  27.169642857142858 19.43  C 26.549851190476193 18.863333333333333  25.882626488095237 18.4  25.16796875 18.04  C 24.453311011904766 17.68  23.612165178571427 17.396666666666665  22.64453125 17.189999999999998  C 21.676897321428573 16.983333333333334  20.702938988095237 16.84  19.72265625 16.759999999999998  C 18.742373511904763 16.68  17.632440476190474 16.64  16.392857142857142 16.64  L 12.142857142857142 16.64  L 12.142857142857142 21.759999999999998  C 12.142857142857142 22.106666666666666  12.022693452380954 22.406666666666666  11.782366071428571 22.66  C 11.542038690476192 22.91333333333333  11.257440476190478 23.04  10.928571428571429 23.04  C 10.599702380952383 23.04  10.315104166666668 22.91333333333333  10.074776785714286 22.66  L 0.36049107142857145 12.420000000000002  C 0.12016369047619048 12.166666666666664  0 11.866666666666664  0 11.52  C 0 11.173333333333332  0.12016369047619048 10.873333333333331  0.36049107142857145 10.620000000000001  L 10.074776785714286 0.379999999999999  C 10.315104166666668 0.12666666666666515  10.599702380952383 0  10.928571428571429 0  C 11.257440476190478 0  11.542038690476192 0.12666666666666515  11.782366071428571 0.379999999999999  C 12.022693452380954 0.6333333333333293  12.142857142857142 0.93333333333333  12.142857142857142 1.2800000000000011  L 12.142857142857142 6.399999999999999  L 16.392857142857142 6.399999999999999  C 25.411458333333336 6.399999999999999  30.9453125 9.086666666666666  32.99441964285714 14.46  Z " stroke-width="4" stroke="#000000" fill="none" transform="matrix(1 0 0 1 123 86 )" mask="url(#clip145)" />
  </g>
</svg>