<?xml version="1.0" encoding="utf-8"?>
<svg version="1.1" xmlns:xlink="http://www.w3.org/1999/xlink" width="43px" height="40px" xmlns="http://www.w3.org/2000/svg">
  <g transform="matrix(1 0 0 1 -549 -72 )">
    <path d="M 6.247477610619469 25.62743008849558  C 3.997683743362832 20.354980530973457  5.104791044247788 14.545352212389382  8.783930026548672 10.363267256637172  L 8.74834468778761 12.700677522123895  L 13.807432820530975 12.79998732743363  L 13.999201518761064 2.429753699115046  L 2.8532247930973447 2.2532050265486743  L 2.7484456276106197 6.959333522123895  L 5.209791884247788 6.990597702654869  C 0.11532692849557409 12.493266729203542  -1.470303779469027 20.30001363185841  1.5424957869026548 27.365256109734517  C 4.84008130902655 35.10044195044249  12.801334193982303 39.96659416283186  21.444615786902652 39.96659416283186  C 22.903618724955752 39.96659416283186  24.382410415221237 39.82682410973452  25.86120210548672 39.54177568495575  L 24.827227149734515 34.93310205663717  C 17.0083925479646 36.448501702654866  9.19310068955752 32.53684223362832  6.2475626364601755 25.627339224778765  Z M 41.45526115044248 12.632506194690265  C 37.60014904424779 3.59556814159292  27.37336238938053 -1.524343362831859  17.140401238938054 0.45818053097345046  L 18.172402380530972 5.066854159292033  C 25.991236982300887 3.5514545132743347  33.80652884070797 7.463113982300883  36.752066893805306 14.368850619469022  C 39.00383457522124 19.645066548672563  37.89475346017699 25.460344424778754  34.21166684955753 29.641958584070792  L 34.243298486725664 27.284304070796455  L 29.182236539823016 27.196029734513267  L 29.01024141061948 37.56438017699115  L 40.156218136283194 37.72437564601769  L 40.25111304778762 33.01824715044247  L 37.80758172920354 32.98882237168141  C 42.88838181769912 27.48991971681415  44.46793925132743 19.692588743362823  41.45508907433628 12.632525026548667  Z " fill-rule="nonzero" fill="#000000" stroke="none" transform="matrix(1 0 0 1 549 72 )" />
  </g>
</svg>