<?xml version="1.0" encoding="utf-8"?>
<svg version="1.1" xmlns:xlink="http://www.w3.org/1999/xlink" width="25px" height="25px" xmlns="http://www.w3.org/2000/svg">
  <defs>
    <filter x="399px" y="181px" width="25px" height="25px" filterUnits="userSpaceOnUse" id="filter156">
      <feOffset dx="1" dy="1" in="SourceAlpha" result="shadowOffsetInner" />
      <feGaussianBlur stdDeviation="2.5" in="shadowOffsetInner" result="shadowGaussian" />
      <feComposite in2="shadowGaussian" operator="atop" in="SourceAlpha" result="shadowComposite" />
      <feColorMatrix type="matrix" values="0 0 0 0 0  0 0 0 0 0  0 0 0 0 0  0 0 0 0.6980392156862745 0  " in="shadowComposite" />
    </filter>
    <g id="widget157">
      <path d="M 410.5 185  C 414.7 185  418 188.3  418 192.5  C 418 196.7  414.7 200  410.5 200  C 406.3 200  403 196.7  403 192.5  C 403 188.3  406.3 185  410.5 185  Z " fill-rule="nonzero" fill="#ffff00" stroke="none" />
      <path d="M 410.5 185.5  C 414.42 185.5  417.5 188.58  417.5 192.5  C 417.5 196.42  414.42 199.5  410.5 199.5  C 406.58 199.5  403.5 196.42  403.5 192.5  C 403.5 188.58  406.58 185.5  410.5 185.5  Z " stroke-width="1" stroke="#ffffff" fill="none" />
    </g>
  </defs>
  <g transform="matrix(1 0 0 1 -399 -181 )">
    <use xlink:href="#widget157" filter="url(#filter156)" />
    <use xlink:href="#widget157" />
  </g>
</svg>