<?xml version="1.0" encoding="utf-8"?>
<svg version="1.1" xmlns:xlink="http://www.w3.org/1999/xlink" width="50px" height="43px" xmlns="http://www.w3.org/2000/svg">
  <g transform="matrix(1 0 0 1 -536 -242 )">
    <path d="M 25.64174107142857 20.352213541666664  C 25.809151785714285 20.184244791666664  25.892857142857146 19.969618055555554  25.892857142857146 19.708333333333336  C 25.892857142857146 19.44704861111111  25.809151785714285 19.232421875  25.64174107142857 19.064453125  C 25.474330357142854 18.896484375  25.260416666666668 18.8125  25 18.8125  C 23.772321428571427 18.8125  22.721354166666668 19.251085069444446  21.847098214285715 20.128255208333336  C 20.972842261904763 21.00542534722222  20.535714285714285 22.05989583333333  20.535714285714285 23.29166666666667  C 20.535714285714285 23.55295138888889  20.619419642857142 23.767578125  20.786830357142858 23.935546875  C 20.954241071428573 24.103515625  21.168154761904763 24.1875  21.428571428571427 24.1875  C 21.688988095238095 24.1875  21.902901785714285 24.103515625  22.0703125 23.935546875  C 22.237723214285715 23.767578125  22.321428571428573 23.55295138888889  22.321428571428573 23.29166666666667  C 22.321428571428573 22.54513888888889  22.581845238095237 21.91059027777778  23.102678571428573 21.388020833333336  C 23.623511904761905 20.865451388888886  24.25595238095238 20.604166666666664  25 20.604166666666664  C 25.260416666666668 20.604166666666664  25.474330357142854 20.520182291666664  25.64174107142857 20.352213541666664  Z M 30.050223214285715 18.280598958333336  C 31.4453125 19.680338541666664  32.142857142857146 21.369357638888886  32.142857142857146 23.34765625  C 32.142857142857146 25.32595486111111  31.4453125 27.01497395833333  30.050223214285715 28.41471354166667  C 28.65513392857143 29.814453125  26.971726190476193 30.51432291666667  25 30.51432291666667  C 23.02827380952381 30.51432291666667  21.344866071428573 29.814453125  19.949776785714285 28.41471354166667  C 18.5546875 27.01497395833333  17.857142857142858 25.32595486111111  17.857142857142858 23.34765625  C 17.857142857142858 21.369357638888886  18.5546875 19.680338541666664  19.949776785714285 18.280598958333336  C 21.344866071428573 16.880859375  23.02827380952381 16.180989583333336  25 16.180989583333336  C 26.971726190476193 16.180989583333336  28.65513392857143 16.880859375  30.050223214285715 18.280598958333336  Z M 3.571428571428571 35  L 3.571428571428571 39  L 46.42857142857143 39  L 46.42857142857143 35  L 3.571428571428571 35  Z M 32.57533482142857 30.9482421875  C 34.66796875 28.8486328125  35.714285714285715 26.31510416666667  35.714285714285715 23.34765625  C 35.714285714285715 20.380208333333336  34.66796875 17.8466796875  32.57533482142857 15.7470703125  C 30.482700892857146 13.6474609375  27.957589285714285 12.59765625  25 12.59765625  C 22.042410714285715 12.59765625  19.517299107142858 13.6474609375  17.424665178571427 15.7470703125  C 15.33203125 17.8466796875  14.285714285714285 20.380208333333336  14.285714285714285 23.34765625  C 14.285714285714285 26.31510416666667  15.33203125 28.8486328125  17.424665178571427 30.9482421875  C 19.517299107142858 33.0478515625  22.042410714285715 34.09765625  25 34.09765625  C 27.957589285714285 34.09765625  30.482700892857146 33.0478515625  32.57533482142857 30.9482421875  Z M 7.142857142857142 2  L 7.142857142857142 6  L 17.857142857142858 6  L 17.857142857142858 2  L 7.142857142857142 2  Z M 3.571428571428571 8  L 3.571428571428571 11  L 46.42857142857143 11  L 46.42857142857143 7.446614583333335  L 46.42857142857143 4  L 23.325892857142858 4  L 21.540178571428573 8  L 3.571428571428571 8  Z M 48.953683035714285 1.0498046875  C 49.65122767857143 1.7496744791666652  50 2.594184027777775  50 3.583333333333335  L 50 39.416666666666664  C 50 40.40581597222222  49.65122767857143 41.250325520833336  48.953683035714285 41.9501953125  C 48.256138392857146 42.650065104166664  47.414434523809526 43  46.42857142857143 43  L 3.571428571428571 43  C 2.5855654761904763 43  1.7438616071428572 42.650065104166664  1.0463169642857142 41.9501953125  C 0.34877232142857145 41.250325520833336  0 40.40581597222222  0 39.416666666666664  L 0 3.583333333333335  C 0 2.594184027777775  0.34877232142857145 1.7496744791666652  1.0463169642857142 1.0498046875  C 1.7438616071428572 0.3499348958333349  2.5855654761904763 0  3.571428571428571 0  L 46.42857142857143 0  C 47.414434523809526 0  48.256138392857146 0.3499348958333349  48.953683035714285 1.0498046875  Z " fill-rule="nonzero" fill="#000000" stroke="none" transform="matrix(1 0 0 1 536 242 )" />
  </g>
</svg>