<?xml version="1.0" encoding="utf-8"?>
<svg version="1.1" xmlns:xlink="http://www.w3.org/1999/xlink" width="7px" height="9px" xmlns="http://www.w3.org/2000/svg">
  <defs>
    <mask fill="white" id="clip183">
      <path d="M 4.7373046875 4.060546875  C 5.0791015625 3.7675781249999996  5.25 3.4140625  5.25 3.0000000000000004  C 5.25 2.5859374999999996  5.0791015625 2.232421875  4.7373046875 1.9394531249999996  C 4.3955078125 1.6464843750000004  3.983072916666667 1.4999999999999996  3.5 1.4999999999999996  C 3.0169270833333335 1.4999999999999996  2.6044921875 1.6464843750000004  2.2626953125 1.9394531249999996  C 1.9208984375 2.232421875  1.75 2.5859374999999996  1.75 3.0000000000000004  C 1.75 3.4140625  1.9208984375 3.7675781249999996  2.2626953125 4.060546875  C 2.6044921875 4.353515625  3.0169270833333335 4.5  3.5 4.5  C 3.983072916666667 4.5  4.3955078125 4.353515625  4.7373046875 4.060546875  Z M 5.974609375 0.87890625  C 6.658203125 1.4648437499999996  7 2.1718749999999987  7 3.0000000000000004  C 7 3.4257812499999996  6.9248046875 3.775390625  6.7744140625 4.048828125  L 4.2861328125 8.583984375  C 4.213216145833334 8.712890625  4.10498046875 8.814453125  3.96142578125 8.888671875  C 3.81787109375 8.962890625  3.6640625 9  3.5 9  C 3.3359375 9  3.18212890625 8.962890625  3.03857421875 8.888671875  C 2.89501953125 8.814453125  2.7890625 8.712890625  2.720703125 8.583984375  L 0.2255859375 4.048828125  C 0.0751953125 3.775390625  0 3.4257812499999996  0 3.0000000000000004  C 0 2.1718749999999987  0.341796875 1.4648437499999996  1.025390625 0.87890625  C 1.7089843750000002 0.29296875000000033  2.533854166666667 0  3.5 0  C 4.466145833333334 0  5.291015625 0.29296875000000033  5.974609375 0.87890625  Z " fill-rule="evenodd" />
    </mask>
  </defs>
  <g transform="matrix(1 0 0 1 -405 -120 )">
    <path d="M 4.7373046875 4.060546875  C 5.0791015625 3.7675781249999996  5.25 3.4140625  5.25 3.0000000000000004  C 5.25 2.5859374999999996  5.0791015625 2.232421875  4.7373046875 1.9394531249999996  C 4.3955078125 1.6464843750000004  3.983072916666667 1.4999999999999996  3.5 1.4999999999999996  C 3.0169270833333335 1.4999999999999996  2.6044921875 1.6464843750000004  2.2626953125 1.9394531249999996  C 1.9208984375 2.232421875  1.75 2.5859374999999996  1.75 3.0000000000000004  C 1.75 3.4140625  1.9208984375 3.7675781249999996  2.2626953125 4.060546875  C 2.6044921875 4.353515625  3.0169270833333335 4.5  3.5 4.5  C 3.983072916666667 4.5  4.3955078125 4.353515625  4.7373046875 4.060546875  Z M 5.974609375 0.87890625  C 6.658203125 1.4648437499999996  7 2.1718749999999987  7 3.0000000000000004  C 7 3.4257812499999996  6.9248046875 3.775390625  6.7744140625 4.048828125  L 4.2861328125 8.583984375  C 4.213216145833334 8.712890625  4.10498046875 8.814453125  3.96142578125 8.888671875  C 3.81787109375 8.962890625  3.6640625 9  3.5 9  C 3.3359375 9  3.18212890625 8.962890625  3.03857421875 8.888671875  C 2.89501953125 8.814453125  2.7890625 8.712890625  2.720703125 8.583984375  L 0.2255859375 4.048828125  C 0.0751953125 3.775390625  0 3.4257812499999996  0 3.0000000000000004  C 0 2.1718749999999987  0.341796875 1.4648437499999996  1.025390625 0.87890625  C 1.7089843750000002 0.29296875000000033  2.533854166666667 0  3.5 0  C 4.466145833333334 0  5.291015625 0.29296875000000033  5.974609375 0.87890625  Z " fill-rule="nonzero" fill="#000000" stroke="none" transform="matrix(1 0 0 1 405 120 )" />
    <path d="M 4.7373046875 4.060546875  C 5.0791015625 3.7675781249999996  5.25 3.4140625  5.25 3.0000000000000004  C 5.25 2.5859374999999996  5.0791015625 2.232421875  4.7373046875 1.9394531249999996  C 4.3955078125 1.6464843750000004  3.983072916666667 1.4999999999999996  3.5 1.4999999999999996  C 3.0169270833333335 1.4999999999999996  2.6044921875 1.6464843750000004  2.2626953125 1.9394531249999996  C 1.9208984375 2.232421875  1.75 2.5859374999999996  1.75 3.0000000000000004  C 1.75 3.4140625  1.9208984375 3.7675781249999996  2.2626953125 4.060546875  C 2.6044921875 4.353515625  3.0169270833333335 4.5  3.5 4.5  C 3.983072916666667 4.5  4.3955078125 4.353515625  4.7373046875 4.060546875  Z " stroke-width="2" stroke="#000000" fill="none" transform="matrix(1 0 0 1 405 120 )" mask="url(#clip183)" />
    <path d="M 5.974609375 0.87890625  C 6.658203125 1.4648437499999996  7 2.1718749999999987  7 3.0000000000000004  C 7 3.4257812499999996  6.9248046875 3.775390625  6.7744140625 4.048828125  L 4.2861328125 8.583984375  C 4.213216145833334 8.712890625  4.10498046875 8.814453125  3.96142578125 8.888671875  C 3.81787109375 8.962890625  3.6640625 9  3.5 9  C 3.3359375 9  3.18212890625 8.962890625  3.03857421875 8.888671875  C 2.89501953125 8.814453125  2.7890625 8.712890625  2.720703125 8.583984375  L 0.2255859375 4.048828125  C 0.0751953125 3.775390625  0 3.4257812499999996  0 3.0000000000000004  C 0 2.1718749999999987  0.341796875 1.4648437499999996  1.025390625 0.87890625  C 1.7089843750000002 0.29296875000000033  2.533854166666667 0  3.5 0  C 4.466145833333334 0  5.291015625 0.29296875000000033  5.974609375 0.87890625  Z " stroke-width="2" stroke="#000000" fill="none" transform="matrix(1 0 0 1 405 120 )" mask="url(#clip183)" />
  </g>
</svg>