<?xml version="1.0" encoding="utf-8"?>
<svg version="1.1" xmlns:xlink="http://www.w3.org/1999/xlink" width="45px" height="43px" xmlns="http://www.w3.org/2000/svg">
  <defs>
    <mask fill="white" id="clip181">
      <path d="M 27.59765625 26.37109375  C 29.968449519230774 24.105669070512818  31.153846153846153 21.37940705128205  31.153846153846153 18.192307692307693  C 31.153846153846153 15.00520833333333  29.968449519230774 12.278946314102562  27.59765625 10.013521634615385  C 25.226862980769234 7.748096955128202  22.373798076923077 6.615384615384616  19.038461538461537 6.615384615384616  C 15.703125000000002 6.615384615384616  12.850060096153848 7.748096955128202  10.479266826923077 10.013521634615385  C 8.108473557692308 12.278946314102562  6.923076923076923 15.00520833333333  6.923076923076923 18.192307692307693  C 6.923076923076923 21.37940705128205  8.108473557692308 24.105669070512818  10.479266826923077 26.37109375  C 12.850060096153848 28.63651842948717  15.703125000000002 29.76923076923077  19.038461538461537 29.76923076923077  C 22.373798076923077 29.76923076923077  25.226862980769234 28.63651842948717  27.59765625 26.37109375  Z M 43.99939903846154 37.36658653846154  C 44.66646634615385 38.004006410256416  45 38.779246794871796  45 39.69230769230769  C 45 40.58814102564103  44.65745192307693 41.363381410256416  43.972355769230774 42.01802884615385  C 43.28725961538462 42.67267628205128  42.47596153846154 43  41.53846153846154 43  C 40.56490384615385 43  39.753605769230774 42.67267628205128  39.10456730769231 42.01802884615385  L 29.82872596153846 33.18028846153846  C 26.6015625 35.316506410256416  23.004807692307697 36.38461538461539  19.038461538461537 36.38461538461539  C 16.46033653846154 36.38461538461539  13.994891826923077 35.90655048076923  11.642127403846153 34.95042067307693  C 9.289362980769232 33.99429086538461  7.261117788461538 32.70222355769231  5.5573918269230775 31.07421875  C 3.8536658653846154 29.446213942307693  2.501502403846154 27.50811298076923  1.5009014423076923 25.259915865384617  C 0.5003004807692308 23.01171875  0 20.655849358974354  0 18.192307692307693  C 0 15.72876602564102  0.5003004807692308 13.372896634615385  1.5009014423076923 11.124699519230768  C 2.501502403846154 8.876502403846153  3.8536658653846154 6.938401442307694  5.5573918269230775 5.310396634615384  C 7.261117788461538 3.682391826923079  9.289362980769232 2.3903245192307683  11.642127403846153 1.434194711538463  C 13.994891826923077 0.47806490384615274  16.46033653846154 0  19.038461538461537 0  C 21.61658653846154 0  24.08203125 0.47806490384615274  26.434795673076923 1.434194711538463  C 28.787560096153847 2.3903245192307683  30.81580528846154 3.682391826923079  32.51953125 5.310396634615384  C 34.22325721153846 6.938401442307694  35.57542067307693 8.876502403846153  36.57602163461538 11.124699519230768  C 37.57662259615385 13.372896634615385  38.07692307692307 15.72876602564102  38.07692307692307 18.192307692307693  C 38.07692307692307 21.982371794871792  36.95913461538462 25.41927083333333  34.72355769230769 28.503004807692307  L 43.99939903846154 37.36658653846154  Z " fill-rule="evenodd" />
    </mask>
  </defs>
  <g transform="matrix(1 0 0 1 -473 -242 )">
    <path d="M 27.59765625 26.37109375  C 29.968449519230774 24.105669070512818  31.153846153846153 21.37940705128205  31.153846153846153 18.192307692307693  C 31.153846153846153 15.00520833333333  29.968449519230774 12.278946314102562  27.59765625 10.013521634615385  C 25.226862980769234 7.748096955128202  22.373798076923077 6.615384615384616  19.038461538461537 6.615384615384616  C 15.703125000000002 6.615384615384616  12.850060096153848 7.748096955128202  10.479266826923077 10.013521634615385  C 8.108473557692308 12.278946314102562  6.923076923076923 15.00520833333333  6.923076923076923 18.192307692307693  C 6.923076923076923 21.37940705128205  8.108473557692308 24.105669070512818  10.479266826923077 26.37109375  C 12.850060096153848 28.63651842948717  15.703125000000002 29.76923076923077  19.038461538461537 29.76923076923077  C 22.373798076923077 29.76923076923077  25.226862980769234 28.63651842948717  27.59765625 26.37109375  Z M 43.99939903846154 37.36658653846154  C 44.66646634615385 38.004006410256416  45 38.779246794871796  45 39.69230769230769  C 45 40.58814102564103  44.65745192307693 41.363381410256416  43.972355769230774 42.01802884615385  C 43.28725961538462 42.67267628205128  42.47596153846154 43  41.53846153846154 43  C 40.56490384615385 43  39.753605769230774 42.67267628205128  39.10456730769231 42.01802884615385  L 29.82872596153846 33.18028846153846  C 26.6015625 35.316506410256416  23.004807692307697 36.38461538461539  19.038461538461537 36.38461538461539  C 16.46033653846154 36.38461538461539  13.994891826923077 35.90655048076923  11.642127403846153 34.95042067307693  C 9.289362980769232 33.99429086538461  7.261117788461538 32.70222355769231  5.5573918269230775 31.07421875  C 3.8536658653846154 29.446213942307693  2.501502403846154 27.50811298076923  1.5009014423076923 25.259915865384617  C 0.5003004807692308 23.01171875  0 20.655849358974354  0 18.192307692307693  C 0 15.72876602564102  0.5003004807692308 13.372896634615385  1.5009014423076923 11.124699519230768  C 2.501502403846154 8.876502403846153  3.8536658653846154 6.938401442307694  5.5573918269230775 5.310396634615384  C 7.261117788461538 3.682391826923079  9.289362980769232 2.3903245192307683  11.642127403846153 1.434194711538463  C 13.994891826923077 0.47806490384615274  16.46033653846154 0  19.038461538461537 0  C 21.61658653846154 0  24.08203125 0.47806490384615274  26.434795673076923 1.434194711538463  C 28.787560096153847 2.3903245192307683  30.81580528846154 3.682391826923079  32.51953125 5.310396634615384  C 34.22325721153846 6.938401442307694  35.57542067307693 8.876502403846153  36.57602163461538 11.124699519230768  C 37.57662259615385 13.372896634615385  38.07692307692307 15.72876602564102  38.07692307692307 18.192307692307693  C 38.07692307692307 21.982371794871792  36.95913461538462 25.41927083333333  34.72355769230769 28.503004807692307  L 43.99939903846154 37.36658653846154  Z " fill-rule="nonzero" fill="#ffffff" stroke="none" transform="matrix(1 0 0 1 473 242 )" />
    <path d="M 27.59765625 26.37109375  C 29.968449519230774 24.105669070512818  31.153846153846153 21.37940705128205  31.153846153846153 18.192307692307693  C 31.153846153846153 15.00520833333333  29.968449519230774 12.278946314102562  27.59765625 10.013521634615385  C 25.226862980769234 7.748096955128202  22.373798076923077 6.615384615384616  19.038461538461537 6.615384615384616  C 15.703125000000002 6.615384615384616  12.850060096153848 7.748096955128202  10.479266826923077 10.013521634615385  C 8.108473557692308 12.278946314102562  6.923076923076923 15.00520833333333  6.923076923076923 18.192307692307693  C 6.923076923076923 21.37940705128205  8.108473557692308 24.105669070512818  10.479266826923077 26.37109375  C 12.850060096153848 28.63651842948717  15.703125000000002 29.76923076923077  19.038461538461537 29.76923076923077  C 22.373798076923077 29.76923076923077  25.226862980769234 28.63651842948717  27.59765625 26.37109375  Z " stroke-width="4" stroke="#000000" fill="none" transform="matrix(1 0 0 1 473 242 )" mask="url(#clip181)" />
    <path d="M 43.99939903846154 37.36658653846154  C 44.66646634615385 38.004006410256416  45 38.779246794871796  45 39.69230769230769  C 45 40.58814102564103  44.65745192307693 41.363381410256416  43.972355769230774 42.01802884615385  C 43.28725961538462 42.67267628205128  42.47596153846154 43  41.53846153846154 43  C 40.56490384615385 43  39.753605769230774 42.67267628205128  39.10456730769231 42.01802884615385  L 29.82872596153846 33.18028846153846  C 26.6015625 35.316506410256416  23.004807692307697 36.38461538461539  19.038461538461537 36.38461538461539  C 16.46033653846154 36.38461538461539  13.994891826923077 35.90655048076923  11.642127403846153 34.95042067307693  C 9.289362980769232 33.99429086538461  7.261117788461538 32.70222355769231  5.5573918269230775 31.07421875  C 3.8536658653846154 29.446213942307693  2.501502403846154 27.50811298076923  1.5009014423076923 25.259915865384617  C 0.5003004807692308 23.01171875  0 20.655849358974354  0 18.192307692307693  C 0 15.72876602564102  0.5003004807692308 13.372896634615385  1.5009014423076923 11.124699519230768  C 2.501502403846154 8.876502403846153  3.8536658653846154 6.938401442307694  5.5573918269230775 5.310396634615384  C 7.261117788461538 3.682391826923079  9.289362980769232 2.3903245192307683  11.642127403846153 1.434194711538463  C 13.994891826923077 0.47806490384615274  16.46033653846154 0  19.038461538461537 0  C 21.61658653846154 0  24.08203125 0.47806490384615274  26.434795673076923 1.434194711538463  C 28.787560096153847 2.3903245192307683  30.81580528846154 3.682391826923079  32.51953125 5.310396634615384  C 34.22325721153846 6.938401442307694  35.57542067307693 8.876502403846153  36.57602163461538 11.124699519230768  C 37.57662259615385 13.372896634615385  38.07692307692307 15.72876602564102  38.07692307692307 18.192307692307693  C 38.07692307692307 21.982371794871792  36.95913461538462 25.41927083333333  34.72355769230769 28.503004807692307  L 43.99939903846154 37.36658653846154  Z " stroke-width="4" stroke="#000000" fill="none" transform="matrix(1 0 0 1 473 242 )" mask="url(#clip181)" />
  </g>
</svg>