<?xml version="1.0" encoding="utf-8"?>
<svg version="1.1" xmlns:xlink="http://www.w3.org/1999/xlink" width="64px" height="60px" xmlns="http://www.w3.org/2000/svg">
  <g transform="matrix(1 0 0 1 -177 -178 )">
    <path d="M 46.5 52.66540642722117  L 43.73076923076923 36.748582230623825  L 55.5 25.51984877126654  L 39.26923076923077 23.1758034026465  L 32 8.73345935727788  L 24.73076923076923 23.1758034026465  L 8.5 25.51984877126654  L 20.26923076923077 36.748582230623825  L 17.46153846153846 52.66540642722117  L 32 45.14177693761815  L 46.5 52.66540642722117  Z M 61.84615384615385 21.512287334593573  C 63.282051282051285 21.739130434782613  64 22.318840579710145  64 23.251417769376182  C 64 23.80592312539382  63.66666666666667 24.41083805923125  63 25.06616257088847  L 49.03846153846154 38.449905482041586  L 52.34615384615385 57.353497164461245  C 52.371794871794876 57.529930686830504  52.38461538461539 57.78197857592942  52.38461538461539 58.109640831758036  C 52.38461538461539 59.369880277252676  51.858974358974365 60  50.80769230769231 60  C 50.320512820512825 60  49.80769230769231 59.848771266540645  49.26923076923077 59.54631379962193  L 32 50.62381852551985  L 14.73076923076923 59.54631379962193  C 14.166666666666668 59.848771266540645  13.653846153846153 60  13.192307692307692 60  C 12.653846153846153 60  12.25 59.81726528040328  11.98076923076923 59.45179584120983  C 11.711538461538462 59.08632640201638  11.576923076923077 58.63894139886578  11.576923076923077 58.109640831758036  C 11.576923076923077 57.95841209829868  11.602564102564104 57.70636420919975  11.653846153846153 57.353497164461245  L 14.961538461538462 38.449905482041586  L 0.9615384615384616 25.06616257088847  C 0.3205128205128205 24.38563327032136  0 23.780718336483936  0 23.251417769376182  C 0 22.318840579710145  0.7179487179487178 21.739130434782613  2.1538461538461537 21.512287334593573  L 21.46153846153846 18.7523629489603  L 30.115384615384617 1.5500945179584091  C 30.602564102564106 0.5166981726528008  31.23076923076923 0  32 0  C 32.76923076923077 0  33.3974358974359 0.5166981726528008  33.88461538461539 1.5500945179584091  L 42.53846153846154 18.7523629489603  L 61.84615384615385 21.512287334593573  Z " fill-rule="nonzero" fill="#ffd000" stroke="none" fill-opacity="0.996078431372549" transform="matrix(1 0 0 1 177 178 )" />
  </g>
</svg>