<?xml version="1.0" encoding="utf-8"?>
<svg version="1.1" xmlns:xlink="http://www.w3.org/1999/xlink" width="20px" height="35px" xmlns="http://www.w3.org/2000/svg">
  <defs>
    <mask fill="white" id="clip146">
      <path d="M 20 17.5  C 20 17.77027027027027  19.891021085050937 18.003003003003005  19.673063255152808 18.198198198198195  L 0.7960199004975124 34.81981981981982  C 0.5780620705993841 35.01501501501502  0.3909026297085999 35.037537537537546  0.23454157782515994 34.887387387387385  C 0.07818052594171997 34.73723723723724  0 34.466966966966964  0 34.07657657657658  L 0 0.9234234234234229  C 0 0.5330330330330285  0.07818052594171997 0.2627627627627588  0.23454157782515994 0.11261261261261368  C 0.3909026297085999 -0.037537537537543075  0.5780620705993841 -0.015015015015014122  0.7960199004975124 0.18018018018018112  L 19.673063255152808 16.8018018018018  C 19.891021085050937 16.996996996996995  20 17.22972972972973  20 17.5  Z " fill-rule="evenodd" />
    </mask>
  </defs>
  <g transform="matrix(1 0 0 1 -128 -165 )">
    <path d="M 20 17.5  C 20 17.77027027027027  19.891021085050937 18.003003003003005  19.673063255152808 18.198198198198195  L 0.7960199004975124 34.81981981981982  C 0.5780620705993841 35.01501501501502  0.3909026297085999 35.037537537537546  0.23454157782515994 34.887387387387385  C 0.07818052594171997 34.73723723723724  0 34.466966966966964  0 34.07657657657658  L 0 0.9234234234234229  C 0 0.5330330330330285  0.07818052594171997 0.2627627627627588  0.23454157782515994 0.11261261261261368  C 0.3909026297085999 -0.037537537537543075  0.5780620705993841 -0.015015015015014122  0.7960199004975124 0.18018018018018112  L 19.673063255152808 16.8018018018018  C 19.891021085050937 16.996996996996995  20 17.22972972972973  20 17.5  Z " fill-rule="nonzero" fill="#000000" stroke="none" transform="matrix(1 0 0 1 128 165 )" />
    <path d="M 20 17.5  C 20 17.77027027027027  19.891021085050937 18.003003003003005  19.673063255152808 18.198198198198195  L 0.7960199004975124 34.81981981981982  C 0.5780620705993841 35.01501501501502  0.3909026297085999 35.037537537537546  0.23454157782515994 34.887387387387385  C 0.07818052594171997 34.73723723723724  0 34.466966966966964  0 34.07657657657658  L 0 0.9234234234234229  C 0 0.5330330330330285  0.07818052594171997 0.2627627627627588  0.23454157782515994 0.11261261261261368  C 0.3909026297085999 -0.037537537537543075  0.5780620705993841 -0.015015015015014122  0.7960199004975124 0.18018018018018112  L 19.673063255152808 16.8018018018018  C 19.891021085050937 16.996996996996995  20 17.22972972972973  20 17.5  Z " stroke-width="2" stroke="#ffffff" fill="none" transform="matrix(1 0 0 1 128 165 )" mask="url(#clip146)" />
  </g>
</svg>