<?xml version="1.0" encoding="utf-8"?>
<svg version="1.1" xmlns:xlink="http://www.w3.org/1999/xlink" width="169px" height="129px" xmlns="http://www.w3.org/2000/svg">
  <g transform="matrix(1 0 0 1 -398 -76 )">
    <path d="M 400.929740581298 123.00597734450068  C 400.929740581298 98.42600478081816  420.8557453621162 78.5  445.4357179257987 78.5  C 445.4357179257987 78.5  519.9940226554977 78.5  519.9940226554977 78.5  C 544.5739952191802 78.5  564.4999999999984 98.42600478081816  564.4999999999983 123.00597734450068  C 564.4999999999984 147.58594990818318  544.5739952191802 167.51195468900136  519.9940226554977 167.51195468900136  C 519.9940226554977 167.51195468900136  465.3263038657695 167.51195468900136  465.3263038657695 167.51195468900136  C 465.3263038657695 167.51195468900136  470.88104424286763 196.93237064692676  470.88104424286763 196.93237064692676  C 470.88104424286763 196.93237064692676  440.7060963930188 167.25993422460206  440.7060963930188 167.25993422460206  C 418.0857176999786 164.84239153037254  400.929740581298 145.75517611929203  400.929740581298 123.00597734450068  Z " fill-rule="nonzero" fill="#ffffff" stroke="none" />
    <path d="M 398.429740581298 123.00597734450068  C 398.429740581298 97.04529290624119  419.4750334875392 76  445.43571792579866 76  C 445.43571792579866 76  519.9940226554977 76  519.9940226554977 76  C 545.9547070937572 76  566.9999999999984 97.04529290624119  566.9999999999984 123.00597734450068  C 566.9999999999984 148.96666178276018  545.9547070937572 170.01195468900136  519.9940226554977 170.01195468900136  C 519.9940226554977 170.01195468900136  468.3424872341264 170.01195468900136  468.3424872341264 170.01195468900136  C 468.3424872341264 170.01195468900136  474.81818181818085 204.31016042780746  474.81818181818085 204.31016042780746  C 474.81818181818085 204.31016042780746  439.56482366285 169.64388581674018  439.56482366285 169.64388581674018  C 416.0596782428528 166.6850004825452  398.429740581298 146.69662663142674  398.429740581298 123.00597734450068  Z M 401.429740581298 123.00597734450068  C 401.429740581298 145.56606557996622  418.4904289318058 164.47204810442327  440.9320604072167 166.78089151917413  C 440.9320604072167 166.78089151917413  470.093616727805 195.4568126907506  470.093616727805 195.4568126907506  C 470.093616727805 195.4568126907506  464.72306719209814 167.01195468900136  464.72306719209814 167.01195468900136  C 464.72306719209814 167.01195468900136  519.9940226554977 167.01195468900136  519.9940226554977 167.01195468900136  C 544.2978528442648 167.01195468900136  563.9999999999984 147.3098075332678  563.9999999999984 123.00597734450068  C 563.9999999999984 98.70214715573357  544.2978528442648 79  519.9940226554977 79  C 519.9940226554977 79  445.43571792579866 79  445.43571792579866 79  C 421.13188773703155 79  401.429740581298 98.70214715573357  401.429740581298 123.00597734450068  Z " fill-rule="nonzero" fill="#000000" stroke="none" />
  </g>
</svg>