<?xml version="1.0" encoding="utf-8"?>
<svg version="1.1" xmlns:xlink="http://www.w3.org/1999/xlink" width="18px" height="18px" viewBox="402 115  18 18" xmlns="http://www.w3.org/2000/svg">
  <path d="M 411 116  C 415.48 116  419 119.52  419 124  C 419 128.48  415.48 132  411 132  C 406.52 132  403 128.48  403 124  C 403 119.52  406.52 116  411 116  Z " fill-rule="nonzero" fill="#6200ee" stroke="none" fill-opacity="0" />
  <path d="M 411 116  C 415.48 116  419 119.52  419 124  C 419 128.48  415.48 132  411 132  C 406.52 132  403 128.48  403 124  C 403 119.52  406.52 116  411 116  Z " stroke-width="2" stroke="#1e98d7" fill="none" />
  <path d="M 411 128.5  C 408.48 128.5  406.5 126.52  406.5 124  C 406.5 121.48  408.48 119.5  411 119.5  C 413.52 119.5  415.5 121.48  415.5 124  C 415.5 126.52  413.52 128.5  411 128.5  " fill-rule="nonzero" fill="#1e98d7" stroke="none" />
</svg>