<?xml version="1.0" encoding="utf-8"?>
<svg version="1.1" xmlns:xlink="http://www.w3.org/1999/xlink" width="18px" height="18px" viewBox="402 140  18 18" xmlns="http://www.w3.org/2000/svg">
  <path d="M 411 141  C 415.48 141  419 144.52  419 149  C 419 153.48  415.48 157  411 157  C 406.52 157  403 153.48  403 149  C 403 144.52  406.52 141  411 141  Z " fill-rule="nonzero" fill="#6200ee" stroke="none" fill-opacity="0" />
  <path d="M 411 141  C 415.48 141  419 144.52  419 149  C 419 153.48  415.48 157  411 157  C 406.52 157  403 153.48  403 149  C 403 144.52  406.52 141  411 141  Z " stroke-width="2" stroke="#1e98d7" fill="none" />
  <path d="M 411 153.5  C 408.48 153.5  406.5 151.52  406.5 149  C 406.5 146.48  408.48 144.5  411 144.5  C 413.52 144.5  415.5 146.48  415.5 149  C 415.5 151.52  413.52 153.5  411 153.5  " fill-rule="nonzero" fill="#1e98d7" stroke="none" />
</svg>