<?xml version="1.0" encoding="utf-8"?>
<svg version="1.1" xmlns:xlink="http://www.w3.org/1999/xlink" width="323px" height="54px" xmlns="http://www.w3.org/2000/svg">
  <g transform="matrix(1 0 0 1 -149 -71 )">
    <path d="M 152.3213385074512 89.20552730827053  C 152.3213385074512 80.53160408786165  159.35294259531287 73.5  168.02686581572175 73.5  C 168.02686581572175 73.5  453.79447269172624 73.5  453.79447269172624 73.5  C 462.4683959121351 73.5  469.49999999999676 80.53160408786165  469.49999999999676 89.20552730827053  C 469.49999999999676 97.8794505286794  462.4683959121351 104.91105461654107  453.79447269172624 104.91105461654107  C 453.79447269172624 104.91105461654107  201.28914621150673 104.91105461654107  201.28914621150673 104.91105461654107  C 201.28914621150673 104.91105461654107  174.8429666508156 117.87063989143437  174.8429666508156 117.87063989143437  C 174.8429666508156 117.87063989143437  185.1544123810022 104.91105461654107  185.1544123810022 104.91105461654107  C 185.1544123810022 104.91105461654107  168.02686581572175 104.91105461654107  168.02686581572175 104.91105461654107  C 159.35294259531287 104.91105461654107  152.3213385074512 97.87945052867943  152.3213385074512 89.20552730827053  Z " fill-rule="nonzero" fill="#ffffff" stroke="none" />
    <path d="M 149.8213385074512 89.20552730827053  C 149.8213385074512 79.15089221328466  157.9722307207359 71  168.02686581572175 71  C 168.02686581572175 71  453.79447269172624 71  453.79447269172624 71  C 463.8491077867121 71  471.99999999999676 79.15089221328466  471.99999999999676 89.20552730827053  C 471.99999999999676 99.26016240325639  463.8491077867121 107.41105461654107  453.79447269172624 107.41105461654107  C 453.79447269172624 107.41105461654107  201.86876513317117 107.41105461654102  201.86876513317117 107.41105461654102  C 201.86876513317117 107.41105461654102  165.97560975610023 125.00000000000001  165.97560975610023 125.00000000000001  C 165.97560975610023 125.00000000000001  179.9704600484254 107.41105461654102  179.9704600484254 107.41105461654102  C 179.9704600484254 107.41105461654102  168.02686581572175 107.41105461654107  168.02686581572175 107.41105461654107  C 157.9722307207359 107.41105461654107  149.8213385074512 99.2601624032564  149.8213385074512 89.20552730827053  Z M 152.8213385074512 89.20552730827053  C 152.8213385074512 97.60330815376402  159.62908497022826 104.41105461654107  168.02686581572175 104.41105461654107  C 168.02686581572175 104.41105461654107  186.19120284751756 104.41105461654107  186.19120284751756 104.41105461654107  C 186.19120284751756 104.41105461654107  176.61643802975868 116.44476786972123  176.61643802975868 116.44476786972123  C 176.61643802975868 116.44476786972123  201.17322242717387 104.41105461654107  201.17322242717387 104.41105461654107  C 201.17322242717387 104.41105461654107  453.79447269172624 104.41105461654107  453.79447269172624 104.41105461654107  C 462.1922535372197 104.41105461654107  468.99999999999676 97.603308153764  468.99999999999676 89.20552730827053  C 468.99999999999676 80.80774646277705  462.19225353721976 74  453.79447269172624 74  C 453.79447269172624 74  168.02686581572175 74  168.02686581572175 74  C 159.62908497022826 74  152.8213385074512 80.80774646277705  152.8213385074512 89.20552730827053  Z " fill-rule="nonzero" fill="#000000" stroke="none" />
  </g>
</svg>